%FSLAX25Y25*%
%MOIN*%
G70*
G01*
G75*
G04 Layer_Color=255*
%ADD10R,0.05118X0.03937*%
%ADD11R,0.05118X0.09843*%
%ADD12R,0.05118X0.06299*%
%ADD13R,0.03937X0.05118*%
%ADD14R,0.05512X0.19685*%
%ADD15R,0.05512X0.05512*%
%ADD16R,0.03937X0.03937*%
%ADD17R,0.06299X0.01969*%
%ADD18R,0.15748X0.06299*%
%ADD19R,0.05118X0.03150*%
%ADD20R,0.09055X0.05118*%
%ADD21R,0.07874X0.12598*%
%ADD22R,0.12598X0.07874*%
%ADD23C,0.03937*%
%ADD24C,0.02284*%
%ADD25C,0.01000*%
%ADD26C,0.01969*%
%ADD27C,0.02953*%
%ADD28C,0.02756*%
%ADD29C,0.01890*%
%ADD30C,0.03150*%
%ADD31R,0.01181X0.09449*%
%ADD32R,0.01181X0.09449*%
%ADD33C,0.03937*%
%ADD34R,0.03937X0.03937*%
%ADD35C,0.01772*%
%ADD36C,0.03347*%
D10*
X422047Y370079D02*
D03*
Y377953D02*
D03*
X414961Y377953D02*
D03*
Y370079D02*
D03*
X433071Y345473D02*
D03*
Y337598D02*
D03*
X395669Y337598D02*
D03*
Y345472D02*
D03*
X426181Y337598D02*
D03*
Y345473D02*
D03*
X426181Y311023D02*
D03*
Y318898D02*
D03*
X402559Y311023D02*
D03*
Y318898D02*
D03*
X395669Y318898D02*
D03*
Y311024D02*
D03*
X433071Y311023D02*
D03*
Y318898D02*
D03*
X402559Y337598D02*
D03*
Y345473D02*
D03*
X388780Y284449D02*
D03*
Y292323D02*
D03*
X404528Y271654D02*
D03*
Y279527D02*
D03*
X388780Y270669D02*
D03*
Y278543D02*
D03*
X463583Y286418D02*
D03*
Y294292D02*
D03*
X447835Y254921D02*
D03*
Y262795D02*
D03*
X463583Y271654D02*
D03*
Y279527D02*
D03*
X439961Y254921D02*
D03*
Y262795D02*
D03*
X442913Y294291D02*
D03*
Y286417D02*
D03*
X396654Y270669D02*
D03*
Y278543D02*
D03*
X341535Y364173D02*
D03*
Y356299D02*
D03*
X341535Y347441D02*
D03*
Y339567D02*
D03*
X352362Y347441D02*
D03*
Y339567D02*
D03*
X341535Y313976D02*
D03*
Y306102D02*
D03*
X352362Y313976D02*
D03*
Y306102D02*
D03*
X341535Y330709D02*
D03*
Y322835D02*
D03*
X352362Y364173D02*
D03*
Y356299D02*
D03*
X352362Y330709D02*
D03*
Y322835D02*
D03*
X379921Y284449D02*
D03*
Y292323D02*
D03*
D13*
X416142Y358268D02*
D03*
X424016D02*
D03*
X375590Y370079D02*
D03*
X367717D02*
D03*
X375590Y377165D02*
D03*
X367717D02*
D03*
X387795Y318898D02*
D03*
X379921D02*
D03*
X387795Y311024D02*
D03*
X379921D02*
D03*
X387795Y345472D02*
D03*
X379921D02*
D03*
X448819Y341535D02*
D03*
X456693D02*
D03*
X387795Y337598D02*
D03*
X379921D02*
D03*
X456693Y333662D02*
D03*
X448819D02*
D03*
X448819Y311023D02*
D03*
X456693D02*
D03*
X456693Y318898D02*
D03*
X448819D02*
D03*
X364173Y270669D02*
D03*
X356299D02*
D03*
X364173Y263779D02*
D03*
X356299D02*
D03*
X339567Y272638D02*
D03*
X347441D02*
D03*
X364173Y282480D02*
D03*
X356299D02*
D03*
X464567Y263780D02*
D03*
X456693D02*
D03*
X364173Y292323D02*
D03*
X356299D02*
D03*
X361417Y354331D02*
D03*
X369291D02*
D03*
X361417Y336614D02*
D03*
X369291D02*
D03*
X361417Y323622D02*
D03*
X369291D02*
D03*
X361417Y311024D02*
D03*
X369291D02*
D03*
D16*
X449213Y361417D02*
D03*
X458661Y365158D02*
D03*
Y357677D02*
D03*
X484842Y360039D02*
D03*
X475394Y356299D02*
D03*
Y363780D02*
D03*
X449213Y374213D02*
D03*
X458661Y377953D02*
D03*
Y370472D02*
D03*
X484842Y373819D02*
D03*
X475394Y370079D02*
D03*
Y377559D02*
D03*
X338976Y288583D02*
D03*
X348425Y292323D02*
D03*
Y284843D02*
D03*
X381496Y271457D02*
D03*
X372047Y267716D02*
D03*
Y275197D02*
D03*
X471457Y266732D02*
D03*
X485236D02*
D03*
X471457Y258858D02*
D03*
X485236D02*
D03*
D34*
X391142Y359842D02*
D03*
X387402Y369291D02*
D03*
X394882D02*
D03*
X395866Y262402D02*
D03*
X399606Y252953D02*
D03*
X392126D02*
D03*
X383071Y262402D02*
D03*
X386811Y252953D02*
D03*
X379331D02*
D03*
X343307Y253346D02*
D03*
X339567Y262795D02*
D03*
X347047D02*
D03*
M02*
