%FSLAX25Y25*%
%MOIN*%
G70*
G01*
G75*
G04 Layer_Physical_Order=2*
G04 Layer_Color=16711680*
%ADD10R,0.05118X0.03937*%
%ADD11R,0.05118X0.09843*%
%ADD12R,0.05118X0.06299*%
%ADD13R,0.03937X0.05118*%
%ADD14R,0.05512X0.19685*%
%ADD15R,0.05512X0.05512*%
%ADD16R,0.03937X0.03937*%
%ADD17R,0.06299X0.01969*%
%ADD18R,0.15748X0.06299*%
%ADD19R,0.05118X0.03150*%
%ADD20R,0.09055X0.05118*%
%ADD21R,0.07874X0.12598*%
%ADD22R,0.12598X0.07874*%
%ADD23C,0.03937*%
%ADD24C,0.02284*%
%ADD25C,0.01000*%
%ADD26C,0.01969*%
%ADD27C,0.02953*%
%ADD28C,0.02756*%
%ADD29C,0.01890*%
%ADD30C,0.03150*%
%ADD31R,0.01181X0.09449*%
%ADD32R,0.01181X0.09449*%
%ADD33C,0.03937*%
%ADD34R,0.03937X0.03937*%
%ADD35C,0.01772*%
%ADD36C,0.03347*%
G36*
X460708Y341895D02*
X461430Y341596D01*
X462205Y341494D01*
X462980Y341596D01*
X463702Y341895D01*
X464064Y342173D01*
X464512Y341952D01*
Y328401D01*
X458222D01*
Y330102D01*
X459661D01*
Y337221D01*
X455785D01*
X455644Y337561D01*
X455922Y337976D01*
X459661D01*
Y342133D01*
X460110Y342354D01*
X460708Y341895D01*
D02*
G37*
G36*
X376362Y281480D02*
X378392D01*
Y279921D01*
X378508Y279336D01*
X378840Y278840D01*
X379967Y277713D01*
Y274425D01*
X378527D01*
Y271089D01*
X378066Y270897D01*
X376381Y272581D01*
X375885Y272913D01*
X375300Y273029D01*
X375016D01*
Y278165D01*
X369218D01*
X368982Y278606D01*
X369055Y278715D01*
X369171Y279300D01*
Y285661D01*
X369055Y286246D01*
X368810Y286612D01*
X369046Y287053D01*
X376362D01*
Y281480D01*
D02*
G37*
G36*
X384827Y349031D02*
X384827D01*
Y341913D01*
X386266D01*
Y341158D01*
X384827D01*
Y334039D01*
X390176D01*
X391167Y333048D01*
X391663Y332717D01*
X392248Y332600D01*
X405739D01*
X406325Y332717D01*
X406821Y333048D01*
X406939Y333041D01*
X407332Y332528D01*
X407952Y332053D01*
X408674Y331754D01*
X409449Y331651D01*
X410224Y331754D01*
X410946Y332053D01*
X411566Y332528D01*
X412042Y333149D01*
X412341Y333871D01*
X412443Y334646D01*
X412341Y335421D01*
X412042Y336143D01*
X411566Y336763D01*
X411316Y336955D01*
Y337455D01*
X411566Y337647D01*
X412042Y338267D01*
X412341Y338989D01*
X412443Y339764D01*
X412341Y340539D01*
X412042Y341261D01*
X411566Y341881D01*
X411316Y342073D01*
Y342573D01*
X411566Y342765D01*
X412042Y343385D01*
X412341Y344107D01*
X412443Y344882D01*
X412341Y345657D01*
X412042Y346379D01*
X411593Y346963D01*
X411815Y347412D01*
X417319D01*
X417540Y346963D01*
X417092Y346379D01*
X416793Y345657D01*
X416691Y344882D01*
X416793Y344107D01*
X417092Y343385D01*
X417568Y342765D01*
X417818Y342573D01*
Y342073D01*
X417568Y341881D01*
X417092Y341261D01*
X416793Y340539D01*
X416691Y339764D01*
X416793Y338989D01*
X417092Y338267D01*
X417568Y337647D01*
X417818Y337455D01*
Y336955D01*
X417568Y336763D01*
X417092Y336143D01*
X416793Y335421D01*
X416691Y334646D01*
X416793Y333871D01*
X417018Y333327D01*
X416768Y332894D01*
X416154Y332813D01*
X415432Y332514D01*
X414812Y332038D01*
X414336Y331418D01*
X414037Y330696D01*
X414001Y330421D01*
X419857D01*
X419821Y330696D01*
X419596Y331240D01*
X419846Y331673D01*
X420460Y331754D01*
X421182Y332053D01*
X421802Y332528D01*
X421858Y332601D01*
X436424D01*
X437522Y331503D01*
Y330059D01*
X437638Y329474D01*
X437970Y328978D01*
X440002Y326946D01*
X440498Y326615D01*
X441083Y326498D01*
X443956D01*
X444542Y326615D01*
X445038Y326946D01*
X448194Y330102D01*
X451788D01*
Y333877D01*
X453263Y335352D01*
X453724Y335160D01*
Y330102D01*
X455163D01*
Y326881D01*
X455063Y326378D01*
X455163Y325875D01*
Y322457D01*
X453724D01*
Y316808D01*
X453263Y316617D01*
X451788Y318092D01*
Y322457D01*
X447423D01*
X445251Y324629D01*
X444755Y324960D01*
X444169Y325077D01*
X441083D01*
X440595Y324979D01*
X440498Y324960D01*
X440001Y324629D01*
X439268Y323895D01*
X423333D01*
X423003Y324271D01*
X423073Y324803D01*
X422971Y325578D01*
X422672Y326300D01*
X422196Y326920D01*
X421576Y327396D01*
X420854Y327695D01*
X420079Y327797D01*
X419572Y327731D01*
X419322Y328164D01*
X419522Y328424D01*
X419821Y329146D01*
X419857Y329421D01*
X417429D01*
Y326993D01*
X417436Y326994D01*
X417686Y326561D01*
X417486Y326300D01*
X417187Y325578D01*
X417085Y324803D01*
X417187Y324028D01*
X417486Y323306D01*
X417962Y322686D01*
X418212Y322494D01*
Y321994D01*
X417962Y321802D01*
X417486Y321182D01*
X417187Y320460D01*
X417085Y319685D01*
X417187Y318910D01*
X417486Y318188D01*
X417962Y317568D01*
X418212Y317376D01*
Y316876D01*
X417962Y316684D01*
X417486Y316064D01*
X417187Y315342D01*
X417085Y314567D01*
X417187Y313792D01*
X417486Y313070D01*
X417962Y312450D01*
X418582Y311974D01*
X419304Y311675D01*
X420079Y311573D01*
X420854Y311675D01*
X421576Y311974D01*
X422174Y312433D01*
X422298Y312371D01*
X422622Y312123D01*
Y308297D01*
X406118D01*
Y312277D01*
X406483Y312618D01*
X406826Y312596D01*
X406938Y312450D01*
X407558Y311974D01*
X408280Y311675D01*
X409055Y311573D01*
X409830Y311675D01*
X410552Y311974D01*
X411172Y312450D01*
X411648Y313070D01*
X411947Y313792D01*
X412049Y314567D01*
X411947Y315342D01*
X411648Y316064D01*
X411172Y316684D01*
X410922Y316876D01*
Y317376D01*
X411172Y317568D01*
X411648Y318188D01*
X411947Y318910D01*
X412049Y319685D01*
X411947Y320460D01*
X411648Y321182D01*
X411172Y321802D01*
X410922Y321994D01*
Y322494D01*
X411172Y322686D01*
X411648Y323306D01*
X411947Y324028D01*
X412049Y324803D01*
X411947Y325578D01*
X411648Y326300D01*
X411172Y326920D01*
X410552Y327396D01*
X409830Y327695D01*
X409055Y327797D01*
X408280Y327695D01*
X407558Y327396D01*
X406938Y326920D01*
X406462Y326300D01*
X406163Y325578D01*
X406061Y324803D01*
X406131Y324271D01*
X405801Y323896D01*
X392489D01*
X391903Y323779D01*
X391407Y323448D01*
X390416Y322457D01*
X384827D01*
Y315338D01*
X386266D01*
Y314583D01*
X384827D01*
Y307465D01*
X384827D01*
Y307440D01*
X384473Y307087D01*
X382890D01*
Y307465D01*
X382890D01*
Y314583D01*
X377614D01*
Y315338D01*
X382890D01*
Y322457D01*
X381451D01*
Y327846D01*
X381550Y328345D01*
X381451Y328846D01*
Y334039D01*
X382890D01*
Y341158D01*
X377614D01*
Y341913D01*
X382890D01*
Y349031D01*
X382890D01*
Y349058D01*
X383243Y349412D01*
X384827D01*
Y349031D01*
D02*
G37*
G36*
X398492Y365275D02*
X398276Y365109D01*
X397801Y364489D01*
X397502Y363767D01*
X397400Y362992D01*
X397502Y362217D01*
X397801Y361495D01*
X398276Y360875D01*
X398897Y360399D01*
X399619Y360100D01*
X400394Y359998D01*
X401169Y360100D01*
X401891Y360399D01*
X402511Y360875D01*
X402987Y361495D01*
X403286Y362217D01*
X403388Y362992D01*
X403286Y363767D01*
X402987Y364489D01*
X402934Y364558D01*
X403155Y365006D01*
X414612D01*
Y361827D01*
X413173D01*
Y356693D01*
X412612D01*
X412341Y357099D01*
X412443Y357874D01*
X412341Y358649D01*
X412042Y359371D01*
X411566Y359991D01*
X410946Y360467D01*
X410224Y360766D01*
X409449Y360868D01*
X408674Y360766D01*
X407952Y360467D01*
X407332Y359991D01*
X406856Y359371D01*
X406557Y358649D01*
X406455Y357874D01*
X406177Y357557D01*
X394110D01*
Y362311D01*
X394273Y362420D01*
X396241Y364388D01*
X396658Y365012D01*
X396805Y365748D01*
X398331D01*
X398492Y365275D01*
D02*
G37*
G36*
X464512Y348768D02*
Y347024D01*
X464064Y346803D01*
X463702Y347081D01*
X462980Y347380D01*
X462205Y347482D01*
X461430Y347380D01*
X460708Y347081D01*
X460265Y346742D01*
X459868Y347007D01*
X459283Y347124D01*
X446169D01*
X445584Y347007D01*
X445485Y346941D01*
X445029Y347148D01*
X445018Y347232D01*
X444719Y347954D01*
X444243Y348574D01*
X443623Y349050D01*
X442901Y349349D01*
X442126Y349451D01*
X441391Y349354D01*
X439687Y351058D01*
X439879Y351520D01*
X461760D01*
X464512Y348768D01*
D02*
G37*
G36*
X394493Y348971D02*
X394256Y348617D01*
X394221Y348441D01*
X392110D01*
Y342504D01*
X399228D01*
Y342504D01*
X406118D01*
Y343353D01*
X406881D01*
X407332Y342765D01*
X407582Y342573D01*
Y342073D01*
X407332Y341881D01*
X406881Y341293D01*
X405905D01*
X405320Y341177D01*
X404824Y340845D01*
X404546Y340567D01*
X399000D01*
Y340567D01*
X392110D01*
Y337084D01*
X391648Y336893D01*
X390764Y337777D01*
Y341158D01*
X389325D01*
Y341913D01*
X390764D01*
Y349031D01*
X390764D01*
Y349058D01*
X391117Y349412D01*
X394257D01*
X394493Y348971D01*
D02*
G37*
G36*
X392110Y319171D02*
Y315929D01*
X399000D01*
Y315929D01*
X404648D01*
X404840Y315467D01*
X403365Y313992D01*
X399228D01*
Y313992D01*
X392110D01*
Y308055D01*
X394140D01*
Y307480D01*
X394141Y307473D01*
X393824Y307087D01*
X390764D01*
Y307465D01*
X390764D01*
Y314583D01*
X389325D01*
Y315338D01*
X390764D01*
Y318478D01*
X391648Y319363D01*
X392110Y319171D01*
D02*
G37*
G36*
X378392Y298216D02*
Y295291D01*
X376362D01*
Y290112D01*
X371688D01*
X371528Y290585D01*
X371802Y290796D01*
X372278Y291416D01*
X372577Y292139D01*
X372679Y292913D01*
X372577Y293688D01*
X372278Y294410D01*
X371802Y295030D01*
X371708Y295103D01*
Y301575D01*
X375032D01*
X378392Y298216D01*
D02*
G37*
G36*
X396620Y290473D02*
X396321Y289751D01*
X396218Y288976D01*
X396321Y288201D01*
X396620Y287479D01*
X397095Y286859D01*
X397345Y286667D01*
Y286167D01*
X397095Y285975D01*
X396620Y285355D01*
X396321Y284633D01*
X396218Y283858D01*
X396315Y283124D01*
X395572Y282381D01*
X395241Y281885D01*
X395166Y281512D01*
X393094D01*
Y280426D01*
X392801Y280132D01*
X392339Y280324D01*
Y281480D01*
Y287417D01*
X385221D01*
Y281480D01*
Y275575D01*
X392339D01*
Y276660D01*
X392633Y276954D01*
X393094Y276763D01*
Y275575D01*
X400213D01*
Y280897D01*
X400654Y281133D01*
X400969Y280923D01*
Y276559D01*
X408087D01*
Y282496D01*
X406057D01*
Y283661D01*
X405941Y284247D01*
X405609Y284743D01*
X404806Y285546D01*
X405027Y285994D01*
X405118Y285982D01*
X405893Y286084D01*
X406615Y286383D01*
X407235Y286859D01*
X407629Y287372D01*
X413964D01*
X414612Y286724D01*
Y273852D01*
X414612Y273852D01*
X414612D01*
X414651Y273655D01*
Y273038D01*
X414287Y272696D01*
X413867Y272724D01*
X413517Y273180D01*
X412897Y273656D01*
X412175Y273955D01*
X411900Y273991D01*
Y271063D01*
X410900D01*
Y273991D01*
X410625Y273955D01*
X409903Y273656D01*
X409283Y273180D01*
X408807Y272560D01*
X408577Y272005D01*
X408087Y272102D01*
Y274622D01*
X405028D01*
Y271654D01*
X404528D01*
Y271153D01*
X400969D01*
Y268685D01*
X400969D01*
Y268683D01*
X400615Y268329D01*
X400213D01*
Y270169D01*
X393094D01*
Y268329D01*
X392339D01*
Y270169D01*
X385221D01*
Y268329D01*
X384465D01*
Y268488D01*
X384465D01*
Y274425D01*
X383025D01*
Y278346D01*
X382909Y278932D01*
X382577Y279428D01*
X381451Y280555D01*
Y281480D01*
X383480D01*
Y287135D01*
X383656Y287170D01*
X384152Y287501D01*
X384152Y287501D01*
X384152Y287501D01*
X385802Y289151D01*
X385938Y289354D01*
X392339D01*
Y290915D01*
X396402D01*
X396620Y290473D01*
D02*
G37*
G36*
X447215Y288792D02*
X447489Y288434D01*
X448109Y287958D01*
X448831Y287659D01*
X449606Y287557D01*
X449744Y287575D01*
X450120Y287246D01*
Y280753D01*
X449672Y280532D01*
X449332Y280793D01*
X448609Y281092D01*
X447835Y281194D01*
X447060Y281092D01*
X446338Y280793D01*
X445717Y280317D01*
X445242Y279697D01*
X444943Y278975D01*
X444840Y278200D01*
X444943Y277425D01*
X445242Y276703D01*
X445717Y276083D01*
X446305Y275632D01*
Y272090D01*
X439979Y265764D01*
X436402D01*
Y260779D01*
X435837Y260667D01*
X435194Y260237D01*
X431866Y256909D01*
X431698Y256931D01*
X407159D01*
X404589Y259501D01*
X404030Y259929D01*
X403840Y260008D01*
X403380Y260199D01*
X402682Y260291D01*
X398835D01*
Y261069D01*
X402362D01*
X402948Y261186D01*
X403444Y261517D01*
X403444Y261517D01*
X403444Y261517D01*
X405752Y263825D01*
X413425D01*
X414010Y263941D01*
X414506Y264273D01*
X414506Y264273D01*
X414506Y264273D01*
X417950Y267716D01*
X418282Y268213D01*
X418398Y268798D01*
X418398Y268798D01*
X418398Y268798D01*
Y268798D01*
Y269568D01*
X419262Y270433D01*
X419594Y270929D01*
X419613Y271026D01*
X419710Y271514D01*
Y275028D01*
X419925Y275242D01*
X431890D01*
X432475Y275359D01*
X432971Y275690D01*
X432971Y275690D01*
X432971Y275690D01*
X435333Y278052D01*
X435665Y278549D01*
X435781Y279134D01*
X435781Y279134D01*
X435781Y279134D01*
Y279134D01*
Y279715D01*
X436369Y280166D01*
X436845Y280786D01*
X437144Y281508D01*
X437246Y282283D01*
X437144Y283058D01*
X436845Y283781D01*
X436369Y284401D01*
X436351Y284414D01*
X436512Y284888D01*
X439354D01*
Y283449D01*
X446472D01*
Y288462D01*
X446526Y288473D01*
X447022Y288804D01*
X447215Y288792D01*
D02*
G37*
G36*
X464512Y309623D02*
X464064Y309402D01*
X463702Y309680D01*
X462980Y309979D01*
X462205Y310081D01*
X461430Y309979D01*
X460708Y309680D01*
X460110Y309221D01*
X459661Y309442D01*
Y314583D01*
X455331D01*
X455053Y314998D01*
X455194Y315339D01*
X459661D01*
Y322457D01*
X458222D01*
Y324355D01*
X464512D01*
Y309623D01*
D02*
G37*
G36*
X423728Y298253D02*
X424003Y298289D01*
X424725Y298588D01*
X425346Y299064D01*
X425607Y299405D01*
X426107Y299389D01*
X426128Y299357D01*
X426785Y298918D01*
X427559Y298764D01*
X434654D01*
X434752Y298274D01*
X434723Y298262D01*
X434103Y297786D01*
X433628Y297166D01*
X433328Y296444D01*
X433226Y295669D01*
X433328Y294894D01*
X433628Y294172D01*
X433864Y293864D01*
X433643Y293415D01*
X433618D01*
X433033Y293299D01*
X432537Y292967D01*
X426084Y286514D01*
X425752Y286018D01*
X425636Y285433D01*
Y284852D01*
X425048Y284401D01*
X424856Y284151D01*
X424356D01*
X424164Y284401D01*
X424070Y284473D01*
Y287794D01*
X423916Y288568D01*
X423771Y288786D01*
X423478Y289224D01*
X417886Y294816D01*
X417229Y295255D01*
X416455Y295409D01*
X414145D01*
X411773Y297781D01*
X411933Y298255D01*
X412192Y298289D01*
X412914Y298588D01*
X413534Y299064D01*
X414010Y299684D01*
X414309Y300406D01*
X414411Y301181D01*
X420234D01*
X420336Y300406D01*
X420635Y299684D01*
X421111Y299064D01*
X421731Y298588D01*
X422453Y298289D01*
X422728Y298253D01*
Y301181D01*
X423728D01*
Y298253D01*
D02*
G37*
G36*
X398108Y299483D02*
X395945Y297321D01*
X385599D01*
X385014Y297204D01*
X384518Y296873D01*
X383639Y295994D01*
X383308Y295498D01*
X383266Y295291D01*
X381451D01*
Y298849D01*
X381334Y299434D01*
X381287Y299504D01*
X381523Y299945D01*
X397917D01*
X398108Y299483D01*
D02*
G37*
G36*
X487402Y269701D02*
X486487D01*
X486452Y269877D01*
X486121Y270373D01*
X477066Y279428D01*
X476897Y279540D01*
X476609Y280237D01*
X476133Y280857D01*
X475513Y281333D01*
X475445Y281361D01*
Y281861D01*
X475907Y282053D01*
X476527Y282528D01*
X477002Y283149D01*
X477302Y283871D01*
X477404Y284646D01*
X477302Y285421D01*
X477142Y285805D01*
X477420Y286221D01*
X487402D01*
Y269701D01*
D02*
G37*
G36*
Y376787D02*
X481874D01*
Y375151D01*
X480315D01*
X479730Y375035D01*
X479234Y374704D01*
X477781Y373251D01*
X477645Y373047D01*
X476920D01*
X476920Y373047D01*
X476807Y373617D01*
X476475Y374113D01*
X476460Y374129D01*
X476651Y374590D01*
X478362D01*
Y380528D01*
X472425D01*
Y378816D01*
X471963Y378625D01*
X471554Y379034D01*
X471058Y379366D01*
X470472Y379482D01*
X461630D01*
Y380921D01*
X455693D01*
Y374984D01*
X461630D01*
Y376423D01*
X469839D01*
X470396Y375867D01*
Y374969D01*
X470512Y374384D01*
X470844Y373888D01*
X471723Y373009D01*
X472219Y372678D01*
X472425Y372637D01*
Y367110D01*
D01*
D01*
X472425Y367110D01*
X472425Y366748D01*
X472425D01*
Y366286D01*
X471977Y366065D01*
X471576Y366372D01*
X470854Y366672D01*
X470079Y366774D01*
X469304Y366672D01*
X468582Y366372D01*
X467962Y365897D01*
X467511Y365309D01*
X465988D01*
X465255Y366042D01*
X464758Y366374D01*
X464173Y366490D01*
X461630D01*
Y367504D01*
X461630D01*
Y369972D01*
X458661D01*
Y370472D01*
X458161D01*
Y373441D01*
X455693D01*
X455693Y373441D01*
Y373441D01*
X455552Y373382D01*
X453837Y375097D01*
X453341Y375429D01*
X452756Y375545D01*
X452181D01*
Y377181D01*
X446244D01*
Y371244D01*
X452181D01*
Y371774D01*
X452643Y371966D01*
X453620Y370989D01*
Y365717D01*
X453737Y365131D01*
X454068Y364635D01*
X454824Y363879D01*
X455320Y363548D01*
X455417Y363528D01*
X455693Y363474D01*
Y362189D01*
X461630D01*
Y363431D01*
X463540D01*
X464273Y362698D01*
X464769Y362367D01*
X465354Y362250D01*
X467511D01*
X467816Y361852D01*
X467736Y361368D01*
X467723Y361351D01*
X467561Y361243D01*
X465529Y359211D01*
X465197Y358715D01*
X465081Y358130D01*
Y355906D01*
X461630D01*
Y357177D01*
X455693D01*
Y355906D01*
X449667D01*
X449475Y356367D01*
X450294Y357186D01*
X450626Y357682D01*
X450742Y358268D01*
Y358449D01*
X452181D01*
Y364386D01*
X446244D01*
Y358449D01*
X446578D01*
X446662Y358244D01*
X446384Y357829D01*
X428193D01*
X427853Y358168D01*
X427357Y358500D01*
X426984Y358574D01*
Y361827D01*
X421047D01*
Y355906D01*
X419110D01*
Y361827D01*
X417671D01*
Y365006D01*
X422047D01*
X422633Y365123D01*
X423129Y365454D01*
X423460Y365950D01*
X423577Y366535D01*
Y367110D01*
X425606D01*
Y373047D01*
X418520D01*
Y373047D01*
X411402D01*
Y372002D01*
X407480D01*
X406867Y371879D01*
X406744Y371855D01*
X406121Y371438D01*
X405897Y371214D01*
X397850D01*
Y372260D01*
X391913D01*
Y366323D01*
X392084D01*
X392169Y366118D01*
X391891Y365702D01*
X385274D01*
X384996Y366118D01*
X385081Y366323D01*
X390370D01*
Y372260D01*
X388931D01*
Y377713D01*
X389216Y377998D01*
X409996D01*
X410336Y377659D01*
X410832Y377327D01*
X411402Y377214D01*
Y374984D01*
X418488D01*
Y374984D01*
X425606D01*
Y380921D01*
X418520D01*
Y380921D01*
X411402D01*
X411402Y380921D01*
Y380921D01*
X411314Y380874D01*
X411215Y380941D01*
X410630Y381057D01*
X388583D01*
X387997Y380941D01*
X387501Y380609D01*
X386320Y379428D01*
X385989Y378932D01*
X385872Y378346D01*
Y372260D01*
X384433D01*
Y366952D01*
X383992Y366716D01*
X383496Y367048D01*
X383374Y367072D01*
X382760Y367194D01*
X378559D01*
Y369579D01*
X372622D01*
Y366520D01*
X375352D01*
X375543Y366058D01*
X372038Y362553D01*
X368396D01*
X367660Y362406D01*
X367036Y361989D01*
X365423Y360376D01*
X364961Y360567D01*
Y361588D01*
X365191Y361889D01*
X365491Y362611D01*
X365593Y363386D01*
X365491Y364161D01*
X365191Y364883D01*
X364961Y365184D01*
Y366520D01*
X370685D01*
Y373606D01*
Y380724D01*
X364961D01*
Y384252D01*
X487402D01*
Y376787D01*
D02*
G37*
G36*
X364567Y380749D02*
X364119Y380528D01*
X364095Y380546D01*
X363373Y380845D01*
X362598Y380947D01*
X361824Y380845D01*
X361101Y380546D01*
X360481Y380070D01*
X360005Y379450D01*
X359706Y378728D01*
X359604Y377953D01*
X359706Y377178D01*
X360005Y376456D01*
X360481Y375836D01*
X361101Y375360D01*
X361824Y375061D01*
X362598Y374959D01*
X363373Y375061D01*
X364095Y375360D01*
X364119Y375377D01*
X364567Y375156D01*
Y371694D01*
X364119Y371473D01*
X364095Y371491D01*
X363373Y371790D01*
X362598Y371892D01*
X361824Y371790D01*
X361101Y371491D01*
X360481Y371015D01*
X360005Y370395D01*
X359706Y369673D01*
X359604Y368898D01*
X359706Y368123D01*
X360005Y367401D01*
X360481Y366780D01*
X360988Y366392D01*
Y365892D01*
X360481Y365503D01*
X360005Y364883D01*
X359706Y364161D01*
X359703Y364134D01*
X359203Y364118D01*
X359104Y364615D01*
X358987Y364791D01*
X358956Y364948D01*
X358517Y365604D01*
X357861Y366042D01*
X357086Y366196D01*
X355921D01*
Y367142D01*
X349649D01*
X349443Y367639D01*
X348968Y368259D01*
X348347Y368735D01*
X347625Y369034D01*
X346850Y369136D01*
X346076Y369034D01*
X345353Y368735D01*
X344733Y368259D01*
X344257Y367639D01*
X344052Y367142D01*
X337976D01*
Y361205D01*
X345094D01*
Y362686D01*
X345467Y362760D01*
X345963Y363092D01*
X346116Y363244D01*
X346850Y363148D01*
X346968Y363163D01*
X347388Y362743D01*
X348045Y362304D01*
X348803Y362153D01*
Y361205D01*
X354903D01*
Y359268D01*
X348803D01*
Y358320D01*
X348355Y358099D01*
X348347Y358105D01*
X347625Y358404D01*
X346850Y358506D01*
X346076Y358404D01*
X345510Y358170D01*
X345094Y358448D01*
Y359268D01*
X337976D01*
Y353331D01*
X344816D01*
X345353Y352919D01*
X346076Y352620D01*
X346132Y352612D01*
Y352112D01*
X346076Y352105D01*
X345353Y351806D01*
X344733Y351330D01*
X344257Y350710D01*
X344133Y350410D01*
X337976D01*
Y344473D01*
X345094D01*
Y345915D01*
X345664Y346028D01*
X346097Y346318D01*
X346850Y346218D01*
X346968Y346234D01*
X347388Y345813D01*
D01*
X347388D01*
Y345813D01*
D01*
X347388D01*
Y345813D01*
X347388D01*
X347388Y345813D01*
Y345813D01*
X347388Y345813D01*
Y345813D01*
X348045Y345375D01*
X348803Y345224D01*
Y344473D01*
X354903D01*
Y342535D01*
X348803D01*
Y341391D01*
X348355Y341170D01*
X348347Y341176D01*
X347625Y341475D01*
X346850Y341577D01*
X346076Y341475D01*
X345510Y341241D01*
X345094Y341518D01*
Y342535D01*
X337976D01*
Y336598D01*
X344631D01*
X344733Y336466D01*
X345353Y335990D01*
X345618Y335880D01*
Y335380D01*
X345353Y335270D01*
X344733Y334794D01*
X344257Y334174D01*
X344052Y333677D01*
X337976D01*
Y327740D01*
X345094D01*
Y329222D01*
X345467Y329296D01*
X345963Y329627D01*
X346116Y329780D01*
X346850Y329683D01*
X346968Y329698D01*
X347388Y329278D01*
X348045Y328839D01*
X348803Y328689D01*
Y327740D01*
X354903D01*
Y325803D01*
X348803D01*
Y324856D01*
X348355Y324635D01*
X348347Y324640D01*
X347625Y324939D01*
X346850Y325041D01*
X346076Y324939D01*
X345510Y324705D01*
X345094Y324983D01*
Y325803D01*
X337976D01*
Y319866D01*
X344817D01*
X345353Y319454D01*
X346076Y319155D01*
X346132Y319148D01*
Y318648D01*
X346076Y318640D01*
X345353Y318341D01*
X344733Y317865D01*
X344257Y317245D01*
X344133Y316945D01*
X337976D01*
Y311008D01*
X345094D01*
Y312450D01*
X345664Y312563D01*
X346097Y312853D01*
X346850Y312754D01*
X346968Y312769D01*
X347388Y312349D01*
X348045Y311910D01*
X348803Y311759D01*
Y311008D01*
X354903D01*
Y309071D01*
X348803D01*
Y307927D01*
X348355Y307705D01*
X348347Y307711D01*
X347625Y308010D01*
X346850Y308112D01*
X346076Y308010D01*
X345510Y307776D01*
X345094Y308054D01*
Y309071D01*
X337976D01*
Y303134D01*
X344631D01*
X344733Y303001D01*
X345353Y302525D01*
X346076Y302226D01*
X346850Y302124D01*
X347625Y302226D01*
X348347Y302525D01*
X348968Y303001D01*
X349069Y303134D01*
X355921D01*
X355921Y303134D01*
Y303134D01*
X356077Y303217D01*
X356251Y303101D01*
X357087Y302934D01*
X357922Y303101D01*
X358631Y303574D01*
X359102Y303259D01*
X359300Y303001D01*
X359920Y302525D01*
X360642Y302226D01*
X361417Y302124D01*
X362192Y302226D01*
X362914Y302525D01*
X363534Y303001D01*
X364010Y303621D01*
X364076Y303781D01*
X364567Y303683D01*
Y302887D01*
X363857Y302593D01*
X363237Y302117D01*
X362761Y301497D01*
X362467Y300787D01*
X362454D01*
X362462Y300775D01*
X362426Y300500D01*
X365354D01*
Y300000D01*
X365854D01*
Y297072D01*
X366129Y297108D01*
X366851Y297407D01*
X367214Y297685D01*
X367662Y297464D01*
Y295486D01*
X367237Y295222D01*
X367142Y295269D01*
Y295882D01*
X361205D01*
Y290233D01*
X360743Y290042D01*
X359268Y291517D01*
Y295882D01*
X353331D01*
Y288764D01*
X357695D01*
X361001Y285458D01*
X361205Y285322D01*
Y283237D01*
X360743Y283046D01*
X360424Y283365D01*
X359928Y283696D01*
X359343Y283813D01*
X359268D01*
Y286039D01*
X353331D01*
Y284010D01*
X352165D01*
X351780Y283933D01*
X351394Y284250D01*
Y287811D01*
X345457D01*
Y281874D01*
X346866D01*
X346963Y281384D01*
X346503Y281193D01*
X345883Y280717D01*
X345407Y280097D01*
X345176Y279540D01*
X344693Y279669D01*
X344726Y279921D01*
X344624Y280696D01*
X344325Y281418D01*
X343849Y282038D01*
X343229Y282514D01*
X342507Y282813D01*
X341732Y282915D01*
X340957Y282813D01*
X340235Y282514D01*
X339615Y282038D01*
X339139Y281418D01*
X338840Y280696D01*
X338738Y279921D01*
X338840Y279146D01*
X339139Y278424D01*
X339615Y277804D01*
X340235Y277328D01*
X340957Y277029D01*
X341685Y276933D01*
X341935Y276500D01*
X341809Y276197D01*
X340067D01*
Y272638D01*
Y269079D01*
X342535D01*
Y271971D01*
X342997Y272163D01*
X343800Y271359D01*
X344297Y271028D01*
X344472Y270993D01*
Y269079D01*
X350409D01*
Y271071D01*
X353331D01*
Y267110D01*
Y266096D01*
X352756D01*
X352268Y265999D01*
X352171Y265980D01*
X351675Y265648D01*
X350478Y264452D01*
X350016Y264643D01*
Y265764D01*
X344079D01*
Y260584D01*
X342535D01*
Y265764D01*
X336598D01*
Y259827D01*
X337922D01*
X337943Y259720D01*
X337957Y259651D01*
X338289Y259155D01*
X339470Y257974D01*
X339966Y257642D01*
X340551Y257526D01*
X349994D01*
X350215Y257077D01*
X350162Y257008D01*
X349863Y256286D01*
X349761Y255511D01*
X349795Y255252D01*
X349466Y254876D01*
X346276D01*
Y256315D01*
X340339D01*
Y250378D01*
X346276D01*
Y251817D01*
X350590D01*
X351176Y251933D01*
X351672Y252265D01*
X351672Y252265D01*
X351672Y252265D01*
X352021Y252614D01*
X352755Y252517D01*
X353530Y252619D01*
X354252Y252918D01*
X354872Y253394D01*
X355348Y254014D01*
X355647Y254736D01*
X355685Y255023D01*
X356181Y255088D01*
X356462Y254408D01*
X356938Y253788D01*
X357558Y253312D01*
X358280Y253013D01*
X359055Y252911D01*
X374016D01*
X374791Y253013D01*
X375513Y253312D01*
X375773Y253512D01*
X375914Y253570D01*
X376153Y253453D01*
X382299D01*
Y254898D01*
X383842D01*
Y249984D01*
X389780D01*
Y249984D01*
X395094D01*
Y251423D01*
X396638D01*
Y249984D01*
X402575D01*
Y253235D01*
X403037Y253427D01*
X403551Y252913D01*
X403747Y252440D01*
X404222Y251820D01*
X404843Y251344D01*
X405565Y251045D01*
X406340Y250943D01*
X431698D01*
X432473Y251045D01*
X433195Y251344D01*
X433815Y251820D01*
X434291Y252440D01*
X434590Y253162D01*
X434692Y253937D01*
X434670Y254105D01*
X435940Y255374D01*
X436402Y255183D01*
Y251953D01*
X439461D01*
Y254921D01*
X439961D01*
Y255421D01*
X443520D01*
Y256852D01*
X444276D01*
Y255421D01*
X447835D01*
Y254921D01*
X448335D01*
Y251953D01*
X451394D01*
Y253561D01*
X451856Y253752D01*
X453788Y251820D01*
X454408Y251344D01*
X454919Y251132D01*
X455131Y251045D01*
X455905Y250943D01*
X458543D01*
X458661Y250927D01*
X477543D01*
X478318Y251029D01*
X479040Y251328D01*
X479661Y251804D01*
X480136Y252424D01*
X480436Y253147D01*
X480538Y253921D01*
Y262556D01*
X481000Y262748D01*
X481565Y262182D01*
Y262182D01*
D01*
Y262182D01*
X481565Y262182D01*
D01*
D01*
X481565D01*
X481565Y262182D01*
Y262182D01*
Y262182D01*
D01*
D01*
X481565D01*
Y262182D01*
X482061Y261851D01*
X482268Y261810D01*
Y255890D01*
X487402D01*
Y246850D01*
X485447D01*
X485176Y247257D01*
X485212Y247532D01*
X479355D01*
X479391Y247257D01*
X479120Y246850D01*
X333465D01*
Y301181D01*
X334252D01*
Y383465D01*
X364567D01*
Y380749D01*
D02*
G37*
%LPC*%
G36*
X388280Y273638D02*
X385221D01*
Y271169D01*
X388280D01*
Y273638D01*
D02*
G37*
G36*
X482784Y250960D02*
Y248532D01*
X485212D01*
X485176Y248806D01*
X484876Y249529D01*
X484401Y250149D01*
X483780Y250624D01*
X483058Y250924D01*
X482784Y250960D01*
D02*
G37*
G36*
X378831Y252453D02*
X376362D01*
Y249984D01*
X378831D01*
Y252453D01*
D02*
G37*
G36*
X400213Y273638D02*
X397154D01*
Y271169D01*
X400213D01*
Y273638D01*
D02*
G37*
G36*
X481783Y250960D02*
X481508Y250924D01*
X480786Y250624D01*
X480166Y250149D01*
X479691Y249529D01*
X479391Y248806D01*
X479355Y248532D01*
X481783D01*
Y250960D01*
D02*
G37*
G36*
X339067Y276197D02*
X336598D01*
Y273138D01*
X339067D01*
Y276197D01*
D02*
G37*
G36*
X392339Y273638D02*
X389280D01*
Y271169D01*
X392339D01*
Y273638D01*
D02*
G37*
G36*
X404028Y274622D02*
X400969D01*
Y272153D01*
X404028D01*
Y274622D01*
D02*
G37*
G36*
X422728Y264739D02*
X422453Y264703D01*
X421731Y264404D01*
X421111Y263928D01*
X420635Y263308D01*
X420336Y262586D01*
X420300Y262311D01*
X422728D01*
Y264739D01*
D02*
G37*
G36*
X426157Y261311D02*
X423728D01*
Y258883D01*
X424003Y258919D01*
X424725Y259218D01*
X425346Y259694D01*
X425821Y260314D01*
X426120Y261036D01*
X426157Y261311D01*
D02*
G37*
G36*
X339067Y272138D02*
X336598D01*
Y269079D01*
X339067D01*
Y272138D01*
D02*
G37*
G36*
X423728Y264739D02*
Y262311D01*
X426157D01*
X426120Y262586D01*
X425821Y263308D01*
X425346Y263928D01*
X424725Y264404D01*
X424003Y264703D01*
X423728Y264739D01*
D02*
G37*
G36*
X422728Y261311D02*
X420300D01*
X420336Y261036D01*
X420635Y260314D01*
X421111Y259694D01*
X421731Y259218D01*
X422453Y258919D01*
X422728Y258883D01*
Y261311D01*
D02*
G37*
G36*
X382299Y252453D02*
X379831D01*
Y249984D01*
X382299D01*
Y252453D01*
D02*
G37*
G36*
X396154Y273638D02*
X393094D01*
Y271169D01*
X396154D01*
Y273638D01*
D02*
G37*
G36*
X443520Y254421D02*
X440461D01*
Y251953D01*
X443520D01*
Y254421D01*
D02*
G37*
G36*
X447335Y254421D02*
X444276D01*
Y251953D01*
X447335D01*
Y254421D01*
D02*
G37*
G36*
X383637Y379028D02*
X381209D01*
Y376599D01*
X381484Y376636D01*
X382206Y376935D01*
X382826Y377410D01*
X383302Y378030D01*
X383601Y378753D01*
X383637Y379028D01*
D02*
G37*
G36*
X429421D02*
X426993D01*
X427029Y378753D01*
X427328Y378030D01*
X427804Y377410D01*
X428424Y376935D01*
X429146Y376636D01*
X429421Y376599D01*
Y379028D01*
D02*
G37*
G36*
X461630Y373441D02*
X459161D01*
Y370972D01*
X461630D01*
Y373441D01*
D02*
G37*
G36*
X380209Y382456D02*
X379934Y382420D01*
X379212Y382120D01*
X378591Y381645D01*
X378116Y381025D01*
X377991Y380724D01*
X376091D01*
Y377165D01*
X375590D01*
Y376665D01*
X372622D01*
Y373606D01*
Y370579D01*
X378559D01*
Y373606D01*
Y376870D01*
X379008Y377091D01*
X379212Y376935D01*
X379934Y376636D01*
X380209Y376599D01*
Y379528D01*
Y382456D01*
D02*
G37*
G36*
X432850Y379028D02*
X430421D01*
Y376599D01*
X430696Y376636D01*
X431418Y376935D01*
X432038Y377410D01*
X432514Y378030D01*
X432813Y378753D01*
X432850Y379028D01*
D02*
G37*
G36*
X429421Y382456D02*
X429146Y382420D01*
X428424Y382120D01*
X427804Y381645D01*
X427328Y381025D01*
X427029Y380303D01*
X426993Y380028D01*
X429421D01*
Y382456D01*
D02*
G37*
G36*
X430421D02*
Y380028D01*
X432850D01*
X432813Y380303D01*
X432514Y381025D01*
X432038Y381645D01*
X431418Y382120D01*
X430696Y382420D01*
X430421Y382456D01*
D02*
G37*
G36*
X375091Y380724D02*
X372622D01*
Y377665D01*
X375091D01*
Y380724D01*
D02*
G37*
G36*
X381209Y382456D02*
Y380028D01*
X383637D01*
X383601Y380303D01*
X383302Y381025D01*
X382826Y381645D01*
X382206Y382120D01*
X381484Y382420D01*
X381209Y382456D01*
D02*
G37*
G36*
X435827Y375829D02*
X435052Y375727D01*
X434330Y375428D01*
X433710Y374952D01*
X433259Y374364D01*
X431496D01*
X430911Y374248D01*
X430415Y373916D01*
X428446Y371948D01*
X428115Y371451D01*
X427998Y370866D01*
Y367529D01*
X427410Y367078D01*
X426935Y366458D01*
X426636Y365736D01*
X426533Y364961D01*
X426636Y364186D01*
X426935Y363464D01*
X427410Y362843D01*
X428030Y362368D01*
X428753Y362069D01*
X429528Y361966D01*
X430302Y362069D01*
X431025Y362368D01*
X431645Y362843D01*
X432121Y363464D01*
X432420Y364186D01*
X432522Y364961D01*
X432420Y365736D01*
X432121Y366458D01*
X431645Y367078D01*
X431057Y367529D01*
Y370233D01*
X432130Y371305D01*
X433259D01*
X433710Y370718D01*
X434330Y370242D01*
X435052Y369942D01*
X435827Y369841D01*
X436602Y369942D01*
X437324Y370242D01*
X437944Y370718D01*
X438420Y371338D01*
X438719Y372060D01*
X438821Y372835D01*
X438719Y373610D01*
X438420Y374332D01*
X437944Y374952D01*
X437324Y375428D01*
X436602Y375727D01*
X435827Y375829D01*
D02*
G37*
G36*
X351394Y291823D02*
X348925D01*
Y289354D01*
X351394D01*
Y291823D01*
D02*
G37*
G36*
X347925Y295291D02*
X345457D01*
Y292823D01*
X347925D01*
Y295291D01*
D02*
G37*
G36*
X338976Y297876D02*
X338201Y297774D01*
X337479Y297475D01*
X336859Y296999D01*
X336383Y296379D01*
X336084Y295657D01*
X335982Y294882D01*
X336084Y294107D01*
X336383Y293385D01*
X336859Y292765D01*
X337447Y292314D01*
Y291551D01*
X336008D01*
Y285614D01*
X341945D01*
Y291551D01*
X340506D01*
Y292314D01*
X341093Y292765D01*
X341569Y293385D01*
X341868Y294107D01*
X341970Y294882D01*
X341868Y295657D01*
X341569Y296379D01*
X341093Y296999D01*
X340473Y297475D01*
X339751Y297774D01*
X338976Y297876D01*
D02*
G37*
G36*
X347925Y291823D02*
X345457D01*
Y289354D01*
X347925D01*
Y291823D01*
D02*
G37*
G36*
X351394Y295291D02*
X348925D01*
Y292823D01*
X351394D01*
Y295291D01*
D02*
G37*
G36*
X458161Y360646D02*
X455693D01*
Y358177D01*
X458161D01*
Y360646D01*
D02*
G37*
G36*
X461630D02*
X459161D01*
Y358177D01*
X461630D01*
Y360646D01*
D02*
G37*
G36*
X364854Y299500D02*
X362426D01*
X362462Y299225D01*
X362761Y298503D01*
X363237Y297883D01*
X363857Y297407D01*
X364579Y297108D01*
X364854Y297072D01*
Y299500D01*
D02*
G37*
G36*
X416429Y329421D02*
X414001D01*
X414037Y329146D01*
X414336Y328424D01*
X414812Y327804D01*
X415432Y327328D01*
X416154Y327029D01*
X416429Y326993D01*
Y329421D01*
D02*
G37*
%LPD*%
D10*
X422047Y370079D02*
D03*
Y377953D02*
D03*
X414961Y377953D02*
D03*
Y370079D02*
D03*
X433071Y345473D02*
D03*
Y337598D02*
D03*
X395669Y337598D02*
D03*
Y345472D02*
D03*
X426181Y337598D02*
D03*
Y345473D02*
D03*
X426181Y311023D02*
D03*
Y318898D02*
D03*
X402559Y311023D02*
D03*
Y318898D02*
D03*
X395669Y318898D02*
D03*
Y311024D02*
D03*
X433071Y311023D02*
D03*
Y318898D02*
D03*
X402559Y337598D02*
D03*
Y345473D02*
D03*
X388780Y284449D02*
D03*
Y292323D02*
D03*
X404528Y271654D02*
D03*
Y279527D02*
D03*
X388780Y270669D02*
D03*
Y278543D02*
D03*
X463583Y286418D02*
D03*
Y294292D02*
D03*
X447835Y254921D02*
D03*
Y262795D02*
D03*
X463583Y271654D02*
D03*
Y279527D02*
D03*
X439961Y254921D02*
D03*
Y262795D02*
D03*
X442913Y294291D02*
D03*
Y286417D02*
D03*
X396654Y270669D02*
D03*
Y278543D02*
D03*
X341535Y364173D02*
D03*
Y356299D02*
D03*
X341535Y347441D02*
D03*
Y339567D02*
D03*
X352362Y347441D02*
D03*
Y339567D02*
D03*
X341535Y313976D02*
D03*
Y306102D02*
D03*
X352362Y313976D02*
D03*
Y306102D02*
D03*
X341535Y330709D02*
D03*
Y322835D02*
D03*
X352362Y364173D02*
D03*
Y356299D02*
D03*
X352362Y330709D02*
D03*
Y322835D02*
D03*
X379921Y284449D02*
D03*
Y292323D02*
D03*
D13*
X416142Y358268D02*
D03*
X424016D02*
D03*
X375590Y370079D02*
D03*
X367717D02*
D03*
X375590Y377165D02*
D03*
X367717D02*
D03*
X387795Y318898D02*
D03*
X379921D02*
D03*
X387795Y311024D02*
D03*
X379921D02*
D03*
X387795Y345472D02*
D03*
X379921D02*
D03*
X448819Y341535D02*
D03*
X456693D02*
D03*
X387795Y337598D02*
D03*
X379921D02*
D03*
X456693Y333662D02*
D03*
X448819D02*
D03*
X448819Y311023D02*
D03*
X456693D02*
D03*
X456693Y318898D02*
D03*
X448819D02*
D03*
X364173Y270669D02*
D03*
X356299D02*
D03*
X364173Y263779D02*
D03*
X356299D02*
D03*
X339567Y272638D02*
D03*
X347441D02*
D03*
X364173Y282480D02*
D03*
X356299D02*
D03*
X464567Y263780D02*
D03*
X456693D02*
D03*
X364173Y292323D02*
D03*
X356299D02*
D03*
X361417Y354331D02*
D03*
X369291D02*
D03*
X361417Y336614D02*
D03*
X369291D02*
D03*
X361417Y323622D02*
D03*
X369291D02*
D03*
X361417Y311024D02*
D03*
X369291D02*
D03*
D16*
X449213Y361417D02*
D03*
X458661Y365158D02*
D03*
Y357677D02*
D03*
X484842Y360039D02*
D03*
X475394Y356299D02*
D03*
Y363780D02*
D03*
X449213Y374213D02*
D03*
X458661Y377953D02*
D03*
Y370472D02*
D03*
X484842Y373819D02*
D03*
X475394Y370079D02*
D03*
Y377559D02*
D03*
X338976Y288583D02*
D03*
X348425Y292323D02*
D03*
Y284843D02*
D03*
X381496Y271457D02*
D03*
X372047Y267716D02*
D03*
Y275197D02*
D03*
X471457Y266732D02*
D03*
X485236D02*
D03*
X471457Y258858D02*
D03*
X485236D02*
D03*
D23*
X455905Y253937D02*
X458661D01*
Y253921D02*
X477543D01*
X445669Y383071D02*
X485827D01*
X333858Y299999D02*
X365354D01*
X333858D02*
Y383071D01*
Y248000D02*
Y299999D01*
X429921Y379528D02*
Y382677D01*
X380709Y379528D02*
Y382677D01*
X333858Y383071D02*
X375590D01*
X477543Y253921D02*
Y268275D01*
X411417Y301181D02*
X423228D01*
X453937Y255906D02*
X455905Y253937D01*
X359055Y255906D02*
X374016D01*
X405118Y288976D02*
Y292913D01*
X401968Y296063D02*
X405118Y292913D01*
X469685Y287008D02*
X472441Y289764D01*
X483465D01*
X483858Y290158D02*
Y353150D01*
X406340Y253937D02*
X431698D01*
X333858Y248000D02*
X482283D01*
X375590Y383071D02*
X445669D01*
D24*
X357087Y305118D02*
Y313976D01*
Y359055D01*
Y363779D01*
X362598Y361024D02*
Y363386D01*
X360630Y359055D02*
X362598Y361024D01*
X357087Y359055D02*
X360630D01*
D25*
X345079Y313976D02*
X346850Y315748D01*
X341535Y313976D02*
X345079D01*
X344882Y330709D02*
X346850Y332677D01*
X341535Y330709D02*
X344882D01*
X345079Y347441D02*
X346850Y349213D01*
X341535Y347441D02*
X345079D01*
X344882Y364173D02*
X346850Y366142D01*
X341535Y364173D02*
X344882D01*
X422835Y369685D02*
X423622D01*
X449213Y358268D02*
Y361024D01*
X447244Y356299D02*
X449213Y358268D01*
X405905Y339764D02*
X409449D01*
X403543Y344882D02*
X409449D01*
X387008Y359842D02*
X391339D01*
X385193Y358028D02*
X387008Y359842D01*
X377670Y358028D02*
X385193D01*
X380709Y358268D02*
Y361417D01*
X375590Y370079D02*
X375590Y370079D01*
X457406Y374484D02*
X458661Y373228D01*
Y370472D02*
Y373228D01*
X464173Y364961D02*
X465354Y363779D01*
X470079D01*
X458661Y377953D02*
X470472D01*
X471925Y376500D01*
Y374969D02*
Y376500D01*
Y374969D02*
X472804Y374091D01*
X474335D01*
X475394Y373031D01*
Y370079D02*
Y373031D01*
X364173Y377953D02*
X367323D01*
X364173Y368110D02*
X366142Y370079D01*
X364173Y368110D02*
Y368898D01*
X366142Y370079D02*
X368110D01*
X470079Y356693D02*
X474803D01*
X466610Y353862D02*
X470472Y350000D01*
X466610Y353862D02*
Y358130D01*
X468642Y360161D01*
X477878D01*
X470472Y302362D02*
Y349999D01*
X373973Y354331D02*
X377670Y358028D01*
X373106Y350635D02*
X378499Y356028D01*
X379921Y348819D02*
X382043Y350941D01*
X379921Y345669D02*
Y348819D01*
X474016Y284646D02*
X474213Y284449D01*
X474213D02*
X474409Y284252D01*
X470547Y280784D02*
X474409Y284646D01*
X485039Y259055D02*
Y262598D01*
X484374Y263264D02*
X485039Y262598D01*
X482646Y263264D02*
X484374D01*
X481768Y264142D02*
X482646Y263264D01*
X481768Y264142D02*
Y268956D01*
X475453Y275272D02*
X481768Y268956D01*
X472579Y275272D02*
X475453D01*
X470547Y277304D02*
X472579Y275272D01*
X470547Y277304D02*
Y280784D01*
X466142Y258661D02*
X471272D01*
X464501Y260302D02*
X466142Y258661D01*
X464501Y260302D02*
Y263734D01*
X468110Y266929D02*
X471654D01*
X464567Y268110D02*
Y272638D01*
X467201Y267839D02*
X468110Y266929D01*
X475984Y278346D02*
X485039Y269291D01*
X474409Y278346D02*
X475984D01*
X474016Y277953D02*
X474409Y278346D01*
X474016Y277953D02*
Y278740D01*
X474409Y284039D02*
Y284252D01*
Y307087D02*
Y320079D01*
Y331890D02*
Y344488D01*
X439051Y330059D02*
X441083Y328028D01*
X420201Y334130D02*
X437057D01*
X439051Y332136D01*
Y330059D02*
Y332136D01*
X438189Y335827D02*
X442520Y331496D01*
X438189Y335827D02*
Y340008D01*
X443956Y328028D02*
X448606Y332677D01*
X441083Y328028D02*
X443956D01*
X419685Y334646D02*
X420201Y334130D01*
X449213Y333465D02*
X456693Y340945D01*
Y341535D01*
X444169Y323547D02*
X448819Y318898D01*
X441083Y323547D02*
X444169D01*
X439902Y322366D02*
X441083Y323547D01*
X422516Y322366D02*
X439902D01*
X420079Y324803D02*
X422516Y322366D01*
X449213Y318504D02*
X456693Y311023D01*
X433071Y345126D02*
X438189Y340008D01*
X445669Y341339D02*
X448425D01*
X442520Y338189D02*
X445669Y341339D01*
X433858Y311417D02*
X442520Y320079D01*
X444882Y311024D02*
X448819D01*
X442520Y313386D02*
X444882Y311024D01*
X395669Y348031D02*
X396579Y348941D01*
X379134Y311024D02*
X379921Y310236D01*
Y305906D02*
Y310236D01*
Y305906D02*
X381059Y304768D01*
X379921Y345669D02*
X380315Y345276D01*
X395669Y346457D02*
Y348031D01*
X443563Y342988D02*
X446169Y345595D01*
X459283D01*
X437130Y346548D02*
Y348062D01*
Y346548D02*
X440689Y342988D01*
X443563D01*
X459283Y345595D02*
X460389Y344488D01*
X462205D01*
X423228Y339764D02*
X425984Y337008D01*
X419685Y339764D02*
X423228D01*
X419685Y344882D02*
X425197D01*
X426181Y337598D02*
X432480D01*
X426181Y318898D02*
X433071D01*
X422835Y314567D02*
X425591Y311811D01*
X420079Y314567D02*
X422835D01*
X420079Y319685D02*
X425591D01*
X387795Y337598D02*
Y344882D01*
X396654Y337598D02*
X402559D01*
X406255Y334646D02*
X409449D01*
X388583Y337795D02*
X392248Y334130D01*
X405739D01*
X406255Y334646D01*
X403937Y337795D02*
X405905Y339764D01*
X445577Y306964D02*
X462083D01*
X443956Y308586D02*
X445577Y306964D01*
X441082Y308586D02*
X443956D01*
X439264Y306768D02*
X441082Y308586D01*
X396382Y306768D02*
X439264D01*
X440594Y304768D02*
X441339Y305512D01*
X443700Y305511D02*
Y305512D01*
X441339D02*
X443700D01*
X442519Y305118D02*
X442912Y305511D01*
X443700D01*
X415426Y290901D02*
X418142Y288186D01*
Y279890D02*
Y288186D01*
X414598Y288901D02*
X416142Y287358D01*
X412248Y290901D02*
X415426D01*
X405193Y288901D02*
X414598D01*
X403665Y299484D02*
X412248Y290901D01*
X403452Y299484D02*
X403665D01*
X403405Y299532D02*
X403452Y299484D01*
X400532Y299532D02*
X403405D01*
X405118Y288976D02*
X405193Y288901D01*
X387795Y318898D02*
X389020D01*
X387795Y312598D02*
Y318898D01*
X406618Y322366D02*
X409055Y324803D01*
X392489Y322366D02*
X406618D01*
X389020Y318898D02*
X392489Y322366D01*
X402559Y318898D02*
X403347Y319685D01*
X402559Y318898D02*
X402559Y318898D01*
X403543D01*
X395669D02*
X402559D01*
X403347Y319685D02*
X409055D01*
X406103Y314567D02*
X409055D01*
X402559Y311023D02*
X406103Y314567D01*
X388114Y292445D02*
X400649D01*
X364173Y271500D02*
X375300D01*
X386614Y311417D02*
X387795Y312598D01*
X348143Y278457D02*
X352165Y282480D01*
X344882Y272441D02*
X349213D01*
X343701Y273622D02*
X344882Y272441D01*
X343701Y273622D02*
Y277121D01*
X341732Y279090D02*
X343701Y277121D01*
X361417Y263779D02*
X364173D01*
X360236Y264961D02*
X361417Y263779D01*
X360236Y264961D02*
Y275197D01*
X356693Y276378D02*
X359055D01*
X360236Y275197D01*
X372047D01*
X339370Y260236D02*
Y262598D01*
Y260236D02*
X340551Y259055D01*
X351425D01*
X352091Y259720D01*
X366763D01*
X369247Y262205D01*
X372047D01*
X382677D01*
X372047D02*
Y267716D01*
X396654Y281299D02*
X399213Y283858D01*
X396654Y278543D02*
Y281299D01*
X400649Y292445D02*
X404118Y288976D01*
X405118D01*
X338976Y288583D02*
Y294882D01*
X349409Y272600D02*
X356299D01*
X341732Y279090D02*
Y279921D01*
X350590Y253346D02*
X352755Y255511D01*
X352755D02*
X352755D01*
X334327Y285114D02*
X341566D01*
X343400Y286948D01*
Y291672D01*
X344051Y292323D01*
X348425D01*
X354209Y286540D01*
X356299Y282283D02*
X359343D01*
X356299D02*
X356299D01*
X352165Y282480D02*
X356299D01*
X360705Y279300D02*
Y280921D01*
Y279300D02*
X361584Y278421D01*
X366763D01*
X359343Y282283D02*
X360705Y280921D01*
X366763Y278421D02*
X367642Y279300D01*
Y285661D01*
X362083Y286540D02*
X366763D01*
X367642Y285661D01*
X356299Y292323D02*
X362083Y286540D01*
X356299Y282283D02*
Y282480D01*
X370866Y274016D02*
X372047Y275197D01*
X361570Y283858D02*
X362257D01*
X358889Y286540D02*
X361570Y283858D01*
X354209Y286540D02*
X358889D01*
X343307Y253346D02*
X350590D01*
X352756Y264567D02*
X356299D01*
X350984Y262795D02*
X352756Y264567D01*
X347047Y262795D02*
X350984D01*
X392126Y252953D02*
X399606D01*
X386811D02*
X392126D01*
X379331Y248228D02*
Y252953D01*
X396063Y262598D02*
X402362D01*
X405118Y265354D01*
X403538Y266800D02*
X404093Y267354D01*
X380000Y266800D02*
X403538D01*
X447835Y248229D02*
Y254921D01*
X455118Y280709D02*
X458661D01*
X451650Y279059D02*
X455118Y275590D01*
X453863Y289886D02*
X459177D01*
X463583Y294292D01*
X458661Y280709D02*
X459843Y279527D01*
X463583D01*
X447835Y268094D02*
X451319Y271579D01*
X439764Y263386D02*
X447835Y271457D01*
Y278200D01*
X455118Y272835D02*
Y275590D01*
X453862Y271579D02*
X455118Y272835D01*
X447835Y262795D02*
Y268094D01*
X451319Y271579D02*
X453862D01*
X390189Y278543D02*
Y284449D01*
X447835Y262795D02*
X448400D01*
X364173Y271500D02*
Y272638D01*
X375300Y271500D02*
X380000Y266800D01*
X452500Y267100D02*
X456693D01*
Y263780D02*
Y267100D01*
X464501Y263734D02*
X464567Y263780D01*
X485039Y266535D02*
Y269291D01*
X464839Y267839D02*
X467201D01*
X464567Y268110D02*
X464839Y267839D01*
X396100Y278543D02*
X396654D01*
X390189Y278543D02*
X396100Y278543D01*
X388780Y284449D02*
X390189D01*
X388780Y278543D02*
X390189D01*
X349409Y272600D02*
Y272638D01*
X356299Y272600D02*
Y272638D01*
X443700Y254921D02*
X447835Y254921D01*
X440945Y254921D02*
X443700D01*
X418142Y279890D02*
X419217Y278815D01*
X462083Y306964D02*
X462205Y307087D01*
X379921Y319293D02*
Y337402D01*
X395669Y307480D02*
Y310236D01*
Y307480D02*
X396382Y306768D01*
X381059Y304768D02*
X440594D01*
X400485Y299484D02*
X400532Y299532D01*
X341535Y306102D02*
X352165D01*
X341535Y322835D02*
X352362D01*
X341535Y339567D02*
X352165D01*
X341535Y356299D02*
X352362D01*
X361417Y305118D02*
Y311024D01*
Y330709D02*
Y336221D01*
Y347638D02*
Y354331D01*
Y317717D02*
Y324016D01*
Y317717D02*
X361811Y317323D01*
Y317323D02*
Y317323D01*
X361810Y317322D02*
X361811Y317323D01*
X361417Y317322D02*
X361810D01*
X474408Y307086D02*
X475590D01*
X474409Y307087D02*
X475590D01*
Y307086D02*
Y307087D01*
X474408Y320078D02*
X475590D01*
X474409Y320079D02*
X475590D01*
Y320078D02*
Y320079D01*
X474408Y344488D02*
X475590D01*
X474409Y344488D02*
X475590D01*
Y344488D02*
Y344488D01*
X455300Y286418D02*
X463583D01*
X451650Y287672D02*
X453863Y289886D01*
X451650Y279059D02*
Y287672D01*
X446606Y290551D02*
X449606D01*
X445941Y289886D02*
X446606Y290551D01*
X440311Y291886D02*
X442520Y294094D01*
X434252Y282283D02*
Y285433D01*
X435236Y286417D01*
X439960D01*
X430784Y284793D02*
X435876Y289886D01*
X445941D01*
X449606Y295669D02*
X458312D01*
X475197Y356299D02*
X475394D01*
X436221Y295669D02*
X438311Y297760D01*
X446792D02*
X448170Y299138D01*
X478862Y372169D02*
X480315Y373622D01*
X484646D01*
X438311Y297760D02*
X446792D01*
X448170Y299138D02*
X458952D01*
X475591Y353543D02*
Y355906D01*
Y353543D02*
X477953Y351181D01*
X477984Y360311D02*
X478862Y361190D01*
Y372169D01*
X477953Y301575D02*
Y351181D01*
X479921Y357874D02*
X482283Y360236D01*
X479921Y352041D02*
Y357874D01*
Y352041D02*
X480160Y351802D01*
X477165Y295669D02*
X480160Y298664D01*
Y301181D01*
Y300954D02*
Y301181D01*
Y351802D01*
X482283Y360236D02*
X484842D01*
X410810Y271654D02*
X411400Y271063D01*
X404528Y279527D02*
Y283661D01*
X399213Y288976D02*
X404528Y283661D01*
X384720Y290232D02*
Y294913D01*
X385599Y295791D01*
X396579D01*
X400272Y299484D01*
X400485D01*
X364173Y291732D02*
X367323Y288583D01*
X383071D01*
X384720Y290232D01*
X381496Y271457D02*
Y278346D01*
X379921Y279921D02*
X381496Y278346D01*
X379921Y279921D02*
Y284252D01*
Y292323D02*
Y298849D01*
X373106Y305664D02*
X379921Y298849D01*
X373106Y305664D02*
Y350635D01*
X369291Y311024D02*
Y323622D01*
X369291Y354331D02*
X373973D01*
X369291Y323622D02*
Y354331D01*
X415354Y377953D02*
X422047D01*
X429528Y364961D02*
Y370866D01*
X431496Y372835D01*
X435827D01*
X434252Y279134D02*
Y282283D01*
X413425Y265354D02*
X416868Y268798D01*
X404093Y267354D02*
X412597D01*
X414868Y269626D01*
X405118Y265354D02*
X413425D01*
X416142Y273852D02*
X416181Y273813D01*
X416142Y273852D02*
Y287358D01*
X416868Y268798D02*
Y270202D01*
X418181Y271514D01*
X414868Y271030D02*
X416181Y272343D01*
Y273813D01*
X414868Y269626D02*
Y271030D01*
X433618Y291886D02*
X440311D01*
X427165Y282283D02*
Y285433D01*
X433618Y291886D01*
X430784Y279602D02*
Y284793D01*
X419217Y278815D02*
X429996D01*
X430784Y279602D01*
X431890Y276772D02*
X434252Y279134D01*
X418181Y271514D02*
Y275661D01*
X419291Y276772D01*
X431890D01*
X437642Y350941D02*
X442126Y346457D01*
X396579Y348941D02*
X429890D01*
X429890Y348941D01*
X436251D01*
X437130Y348062D01*
X382043Y350941D02*
X437642D01*
X378499Y356028D02*
X407996D01*
X409449Y357480D01*
Y357874D01*
X416142Y358268D02*
Y366535D01*
X400394Y362992D02*
Y365748D01*
X401181Y366535D01*
X416142D01*
X416142D02*
X422047D01*
Y368898D01*
X424016Y358268D02*
X425197Y357087D01*
X426772D01*
X427559Y356299D01*
X447244D01*
X452091Y370744D02*
X453150Y369685D01*
X455150Y365717D02*
X455905Y364961D01*
X464173D01*
X453150Y364567D02*
Y369685D01*
Y364567D02*
X455118Y362598D01*
Y358268D02*
Y362598D01*
Y358268D02*
X455709Y357677D01*
X458661D01*
X449213Y374016D02*
X452756D01*
X455150Y371622D01*
Y365717D02*
Y371622D01*
X452362Y377953D02*
X455831Y374484D01*
X457406D01*
X387402Y369291D02*
Y378346D01*
X388583Y379528D01*
X413779Y378740D02*
X414961Y377559D01*
X388583Y379528D02*
X410630D01*
X411417Y378740D01*
X413779D01*
X458952Y299138D02*
X459814Y300000D01*
X468110D01*
X470472Y302362D01*
X458312Y295669D02*
X460642Y298000D01*
X474378D01*
X477953Y301575D01*
X456693Y319291D02*
Y333858D01*
X445669Y377953D02*
Y383071D01*
Y377953D02*
X452362D01*
X334252Y272835D02*
X339567D01*
X375590Y370079D02*
Y383071D01*
X445669Y371698D02*
Y377953D01*
Y371698D02*
X446623Y370744D01*
X452091D01*
X388583Y270472D02*
X400000D01*
X401181Y271654D01*
X410810D01*
D26*
X357087Y313976D02*
X357268D01*
X352362D02*
X357087D01*
X352362Y330709D02*
X357087D01*
X351969Y347244D02*
X352362Y347638D01*
Y347441D02*
X356890D01*
X352362Y364173D02*
X357086D01*
X348819Y347244D02*
X351969D01*
X346850Y349213D02*
X348819Y347244D01*
X348819Y364173D02*
X352362D01*
X346850Y366142D02*
X348819Y364173D01*
X348819Y330709D02*
X352362D01*
X346850Y332677D02*
X348819Y330709D01*
X348819Y313779D02*
X352362D01*
X346850Y315748D02*
X348819Y313779D01*
X466535Y326378D02*
Y349606D01*
X462598Y353543D02*
X466535Y349606D01*
X375590Y349606D02*
X379528Y353543D01*
X457087Y326378D02*
X466535D01*
X416455Y293386D02*
X422047Y287794D01*
Y283705D02*
Y287794D01*
X413307Y293386D02*
X416455D01*
X404724Y301969D02*
X413307Y293386D01*
X404482Y301969D02*
X404724D01*
X375590Y306693D02*
Y349606D01*
X375984Y328346D02*
X379527Y328346D01*
X375590Y306693D02*
X380315Y301969D01*
X399455D01*
X399503Y302016D01*
X404434D01*
X404482Y301969D01*
X369685Y292913D02*
Y303150D01*
X365354Y307480D02*
X369685Y303150D01*
X379528Y353543D02*
X462598D01*
X466535Y305827D02*
Y326378D01*
X463464Y302756D02*
X466535Y305827D01*
X446063Y302756D02*
X463464D01*
X444095Y300787D02*
X446063Y302756D01*
X427559Y300787D02*
X444095D01*
D28*
X468544Y275237D02*
X471387Y272394D01*
X474260D01*
X477543Y269111D01*
D29*
X468102Y275678D02*
Y284638D01*
X469685Y286221D01*
X451401Y258835D02*
X453937Y256299D01*
X436596Y258835D02*
X451401D01*
X431698Y253937D02*
X436596Y258835D01*
D33*
X365354Y300000D02*
D03*
X400394Y362992D02*
D03*
X409449Y339764D02*
D03*
X380709Y379528D02*
D03*
Y361417D02*
D03*
X470079Y363779D02*
D03*
X362598Y368898D02*
D03*
Y363386D02*
D03*
Y377953D02*
D03*
X470079Y356693D02*
D03*
X474016Y278740D02*
D03*
X416929Y329921D02*
D03*
X361417Y317322D02*
D03*
X462205Y344488D02*
D03*
X361417Y347638D02*
D03*
Y305118D02*
D03*
X442520Y331496D02*
D03*
Y338189D02*
D03*
Y313386D02*
D03*
Y320079D02*
D03*
X442126Y346457D02*
D03*
X420079Y314567D02*
D03*
X409449Y334646D02*
D03*
X423228Y301181D02*
D03*
X442519Y305118D02*
D03*
X411417Y301181D02*
D03*
X409055Y324803D02*
D03*
Y319685D02*
D03*
X338976Y294882D02*
D03*
X341732Y279921D02*
D03*
X348000Y278600D02*
D03*
X356693Y276378D02*
D03*
X399213Y283858D02*
D03*
X405118Y288976D02*
D03*
X352755Y255511D02*
D03*
X482283Y248031D02*
D03*
X359055Y255906D02*
D03*
X458661Y253937D02*
D03*
X455118Y275590D02*
D03*
X452756Y268110D02*
D03*
X447835Y278200D02*
D03*
X399213Y288976D02*
D03*
X411400Y271063D02*
D03*
X462205Y307087D02*
D03*
X420079Y319685D02*
D03*
Y324803D02*
D03*
X419685Y334646D02*
D03*
X409055Y314567D02*
D03*
X401968Y296063D02*
D03*
X346850Y305118D02*
D03*
Y332677D02*
D03*
Y366142D02*
D03*
Y322047D02*
D03*
Y355512D02*
D03*
Y315748D02*
D03*
Y349213D02*
D03*
Y338583D02*
D03*
X361417Y330709D02*
D03*
X474408Y307086D02*
D03*
Y320078D02*
D03*
Y331889D02*
D03*
Y344488D02*
D03*
X455118Y280709D02*
D03*
X455300Y286418D02*
D03*
X449606Y290551D02*
D03*
Y295669D02*
D03*
X474409Y284646D02*
D03*
X477165Y295669D02*
D03*
X483858Y353150D02*
D03*
X369685Y292913D02*
D03*
X436221Y295669D02*
D03*
X434252Y282283D02*
D03*
X427165D02*
D03*
X422047D02*
D03*
X409449Y344882D02*
D03*
X419685Y339764D02*
D03*
Y344882D02*
D03*
X409449Y357874D02*
D03*
X423228Y261811D02*
D03*
X429528Y364961D02*
D03*
X429921Y379528D02*
D03*
X435827Y372835D02*
D03*
D34*
X391142Y359842D02*
D03*
X387402Y369291D02*
D03*
X394882D02*
D03*
X395866Y262402D02*
D03*
X399606Y252953D02*
D03*
X392126D02*
D03*
X383071Y262402D02*
D03*
X386811Y252953D02*
D03*
X379331D02*
D03*
X343307Y253346D02*
D03*
X339567Y262795D02*
D03*
X347047D02*
D03*
D35*
X407480Y370079D02*
X416142D01*
X394882Y365748D02*
Y369291D01*
X384252Y363779D02*
X392913D01*
X382760Y365272D02*
X384252Y363779D01*
X377476Y365272D02*
X382760D01*
X392913Y363779D02*
X394882Y365748D01*
X372835Y360630D02*
X377476Y365272D01*
X368396Y360630D02*
X372835D01*
X365354Y357588D02*
X368396Y360630D01*
X365354Y307480D02*
Y357588D01*
X394882Y369291D02*
X406693D01*
X407480Y370079D01*
D36*
X374566Y255906D02*
X376255Y257594D01*
X402682D01*
X406340Y253937D01*
M02*
