%FSLAX25Y25*%
%MOIN*%
G70*
G01*
G75*
G04 Layer_Color=55807*
%ADD10R,0.05118X0.03937*%
%ADD11R,0.05118X0.09843*%
%ADD12R,0.05118X0.06299*%
%ADD13R,0.03937X0.05118*%
%ADD14R,0.05512X0.19685*%
%ADD15R,0.05512X0.05512*%
%ADD16R,0.03937X0.03937*%
%ADD17R,0.06299X0.01969*%
%ADD18R,0.15748X0.06299*%
%ADD19R,0.05118X0.03150*%
%ADD20R,0.09055X0.05118*%
%ADD21R,0.07874X0.12598*%
%ADD22R,0.12598X0.07874*%
%ADD23C,0.03937*%
%ADD24C,0.02284*%
%ADD25C,0.01000*%
%ADD26C,0.01969*%
%ADD27C,0.02953*%
%ADD28C,0.02756*%
%ADD29C,0.01890*%
%ADD30C,0.03150*%
%ADD31R,0.01181X0.09449*%
%ADD32R,0.01181X0.09449*%
%ADD33C,0.03937*%
%ADD34R,0.03937X0.03937*%
%ADD35C,0.01772*%
%ADD36C,0.03347*%
%ADD37C,0.00787*%
%ADD38R,0.17323X0.03543*%
%ADD39R,0.11024X0.11024*%
%ADD40R,0.28346X0.03937*%
%ADD41R,0.03150X0.07087*%
%ADD42R,0.03150X0.07480*%
%ADD43R,0.02756X0.07087*%
%ADD44R,0.03150X0.07480*%
%ADD45R,0.01969X0.10236*%
%ADD46R,0.05918X0.04737*%
%ADD47R,0.05918X0.10642*%
%ADD48R,0.05918X0.07099*%
%ADD49R,0.04737X0.05918*%
%ADD50R,0.06312X0.20485*%
%ADD51R,0.06312X0.06312*%
%ADD52R,0.04737X0.04737*%
%ADD53R,0.07099X0.02769*%
%ADD54R,0.16548X0.07099*%
%ADD55R,0.05918X0.03950*%
%ADD56R,0.09855X0.05918*%
%ADD57R,0.08674X0.13398*%
%ADD58R,0.13398X0.08674*%
%ADD59R,0.04737X0.04737*%
%ADD60C,0.00984*%
%ADD61R,0.18504X0.03543*%
%ADD62R,0.21654X0.06693*%
%ADD63R,0.17323X0.07087*%
%ADD64R,0.18110X0.08268*%
%ADD65R,0.50394X0.04331*%
%ADD66R,0.09449X0.46850*%
%ADD67R,0.24016X0.04331*%
%ADD68R,0.18504X0.04724*%
%ADD69R,0.07087X0.51181*%
%ADD70R,0.52362X0.10236*%
%ADD71R,0.13780X0.51575*%
%ADD72R,0.28346X0.12992*%
%ADD73R,0.13780X0.11024*%
%ADD74R,0.10630X0.30709*%
%ADD75R,0.14173X0.14961*%
%ADD76R,0.03150X0.33071*%
%ADD77R,0.23228X0.11024*%
%ADD78R,0.04724X0.18110*%
%ADD79R,0.15354X0.15748*%
%ADD80R,0.24803X0.51968*%
D23*
X470472Y278346D02*
X485827D01*
X470472D02*
Y345276D01*
X485827D01*
Y278346D02*
Y345276D01*
D25*
X418897Y367520D02*
Y380512D01*
X425197Y367520D02*
Y380512D01*
X418897Y367520D02*
X425197D01*
X418897Y380512D02*
X425197D01*
X384646Y357283D02*
Y371850D01*
X397638Y357283D02*
Y371850D01*
X384646Y357283D02*
X397638D01*
X384646Y371850D02*
X397638D01*
X413583Y361417D02*
X426575D01*
X413583Y355118D02*
X426575D01*
X413583D02*
Y361417D01*
X426575Y355118D02*
Y361417D01*
X418110Y367520D02*
Y380512D01*
X411811Y367520D02*
Y380512D01*
X418110D01*
X411811Y367520D02*
X418110D01*
X446654Y367914D02*
X461221D01*
X446654Y354921D02*
X461221D01*
X446654D02*
Y367914D01*
X461221Y354921D02*
Y367914D01*
X472835Y353543D02*
X487402D01*
X472835Y366535D02*
X487402D01*
Y353543D02*
Y366535D01*
X472835Y353543D02*
Y366535D01*
X446653Y380709D02*
X461220D01*
X446653Y367717D02*
X461220D01*
X446653D02*
Y380709D01*
X461220Y367717D02*
Y380709D01*
X472835Y367323D02*
X487401D01*
X472835Y380315D02*
X487401D01*
Y367323D02*
Y380315D01*
X472835Y367323D02*
Y380315D01*
X365158Y366929D02*
X378150D01*
X365158Y373228D02*
X378150D01*
Y366929D02*
Y373228D01*
X365158Y366929D02*
Y373228D01*
Y374016D02*
X378150D01*
X365158Y380315D02*
X378150D01*
Y374016D02*
Y380315D01*
X365158Y374016D02*
Y380315D01*
X377362Y315748D02*
X390354D01*
X377362Y322047D02*
X390354D01*
Y315748D02*
Y322047D01*
X377362Y315748D02*
Y322047D01*
Y307874D02*
X390354D01*
X377362Y314173D02*
X390354D01*
Y307874D02*
Y314173D01*
X377362Y307874D02*
Y314173D01*
X377362Y342323D02*
X390354D01*
X377362Y348622D02*
X390354D01*
Y342323D02*
Y348622D01*
X377362Y342323D02*
Y348622D01*
X446260Y344685D02*
X459252D01*
X446260Y338386D02*
X459252D01*
X446260D02*
Y344685D01*
X459252Y338386D02*
Y344685D01*
X436221Y335039D02*
Y348031D01*
X429921Y335039D02*
Y348031D01*
X436221D01*
X429921Y335039D02*
X436221D01*
X392520Y335039D02*
Y348032D01*
X398819Y335039D02*
Y348032D01*
X392520Y335039D02*
X398819D01*
X392520Y348032D02*
X398819D01*
X377362Y334449D02*
X390354D01*
X377362Y340748D02*
X390354D01*
Y334449D02*
Y340748D01*
X377362Y334449D02*
Y340748D01*
X446260Y330512D02*
X459252D01*
X446260Y336811D02*
X459252D01*
Y330512D02*
Y336811D01*
X446260Y330512D02*
Y336811D01*
X423031Y335039D02*
Y348031D01*
X429331Y335039D02*
Y348031D01*
X423031Y335039D02*
X429331D01*
X423031Y348031D02*
X429331D01*
X423032Y308465D02*
Y321457D01*
X429331Y308465D02*
Y321457D01*
X423032Y308465D02*
X429331D01*
X423032Y321457D02*
X429331D01*
X399409Y308465D02*
Y321457D01*
X405709Y308465D02*
Y321457D01*
X399409Y308465D02*
X405709D01*
X399409Y321457D02*
X405709D01*
X398819Y308465D02*
Y321457D01*
X392520Y308465D02*
Y321457D01*
X398819D01*
X392520Y308465D02*
X398819D01*
X446260Y314173D02*
X459252D01*
X446260Y307874D02*
X459252D01*
X446260D02*
Y314173D01*
X459252Y307874D02*
Y314173D01*
X446260Y315748D02*
X459252D01*
X446260Y322047D02*
X459252D01*
Y315748D02*
Y322047D01*
X446260Y315748D02*
Y322047D01*
X429921Y308465D02*
Y321457D01*
X436221Y308465D02*
Y321457D01*
X429921Y308465D02*
X436221D01*
X429921Y321457D02*
X436221D01*
X399409Y335039D02*
Y348031D01*
X405709Y335039D02*
Y348031D01*
X399409Y335039D02*
X405709D01*
X399409Y348031D02*
X405709D01*
X385630Y281890D02*
Y294882D01*
X391929Y281890D02*
Y294882D01*
X385630Y281890D02*
X391929D01*
X385630Y294882D02*
X391929D01*
X401378Y269094D02*
Y282086D01*
X407677Y269094D02*
Y282086D01*
X401378Y269094D02*
X407677D01*
X401378Y282086D02*
X407677D01*
X353740Y267520D02*
X366732D01*
X353740Y273819D02*
X366732D01*
Y267520D02*
Y273819D01*
X353740Y267520D02*
Y273819D01*
X385630Y268110D02*
Y281102D01*
X391929Y268110D02*
Y281102D01*
X385630Y268110D02*
X391929D01*
X385630Y281102D02*
X391929D01*
X336417Y295079D02*
X350984D01*
X336417Y282087D02*
X350984D01*
X336417D02*
Y295079D01*
X350984Y282087D02*
Y295079D01*
X402362Y250394D02*
Y264961D01*
X389370Y250394D02*
Y264961D01*
X402362D01*
X389370Y250394D02*
X402362D01*
X353740Y260630D02*
X366732D01*
X353740Y266929D02*
X366732D01*
Y260630D02*
Y266929D01*
X353740Y260630D02*
Y266929D01*
X337008Y275787D02*
X350000D01*
X337008Y269488D02*
X350000D01*
X337008D02*
Y275787D01*
X350000Y269488D02*
Y275787D01*
X389567Y250394D02*
Y264961D01*
X376575Y250394D02*
Y264961D01*
X389567D01*
X376575Y250394D02*
X389567D01*
X353740Y279331D02*
X366732D01*
X353740Y285630D02*
X366732D01*
Y279331D02*
Y285630D01*
X353740Y279331D02*
Y285630D01*
X336811Y250787D02*
Y265354D01*
X349803Y250787D02*
Y265354D01*
X336811Y250787D02*
X349803D01*
X336811Y265354D02*
X349803D01*
X460433Y283858D02*
Y296851D01*
X466732Y283858D02*
Y296851D01*
X460433Y283858D02*
X466732D01*
X460433Y296851D02*
X466732D01*
X444685Y252362D02*
Y265354D01*
X450984Y252362D02*
Y265354D01*
X444685Y252362D02*
X450984D01*
X444685Y265354D02*
X450984D01*
X460433Y269094D02*
Y282087D01*
X466733Y269094D02*
Y282087D01*
X460433Y269094D02*
X466733D01*
X460433Y282087D02*
X466733D01*
X436811Y252362D02*
Y265354D01*
X443110Y252362D02*
Y265354D01*
X436811Y252362D02*
X443110D01*
X436811Y265354D02*
X443110D01*
X446063Y283858D02*
Y296850D01*
X439764Y283858D02*
Y296850D01*
X446063D01*
X439764Y283858D02*
X446063D01*
X393504Y268110D02*
Y281102D01*
X399803Y268110D02*
Y281102D01*
X393504Y268110D02*
X399803D01*
X393504Y281102D02*
X399803D01*
X369488Y264961D02*
X384055D01*
X369488Y277953D02*
X384055D01*
Y264961D02*
Y277953D01*
X369488Y264961D02*
Y277953D01*
X468898Y263386D02*
Y270079D01*
X487795Y263386D02*
Y270079D01*
X468898D02*
X487795D01*
X468898Y263386D02*
X487795D01*
X468898Y255512D02*
Y262205D01*
X487795Y255512D02*
Y262205D01*
X468898D02*
X487795D01*
X468898Y255512D02*
X487795D01*
X454134Y260630D02*
X467126D01*
X454134Y266929D02*
X467126D01*
Y260630D02*
Y266929D01*
X454134Y260630D02*
Y266929D01*
X353740Y289173D02*
X366732D01*
X353740Y295472D02*
X366732D01*
Y289173D02*
Y295472D01*
X353740Y289173D02*
Y295472D01*
X344685Y353740D02*
Y366732D01*
X338386Y353740D02*
Y366732D01*
X344685D01*
X338386Y353740D02*
X344685D01*
X344685Y337008D02*
Y350000D01*
X338386Y337008D02*
Y350000D01*
X344685D01*
X338386Y337008D02*
X344685D01*
X358858Y357480D02*
X371850D01*
X358858Y351181D02*
X371850D01*
X358858D02*
Y357480D01*
X371850Y351181D02*
Y357480D01*
X355512Y337008D02*
Y350000D01*
X349213Y337008D02*
Y350000D01*
X355512D01*
X349213Y337008D02*
X355512D01*
X358858Y339764D02*
X371850D01*
X358858Y333465D02*
X371850D01*
X358858D02*
Y339764D01*
X371850Y333465D02*
Y339764D01*
X358858Y326772D02*
X371850D01*
X358858Y320473D02*
X371850D01*
X358858D02*
Y326772D01*
X371850Y320473D02*
Y326772D01*
X358858Y314173D02*
X371850D01*
X358858Y307874D02*
X371850D01*
X358858D02*
Y314173D01*
X371850Y307874D02*
Y314173D01*
X344685Y303543D02*
Y316535D01*
X338386Y303543D02*
Y316535D01*
X344685D01*
X338386Y303543D02*
X344685D01*
X355512D02*
Y316535D01*
X349213Y303543D02*
Y316535D01*
X355512D01*
X349213Y303543D02*
X355512D01*
X344685Y320276D02*
Y333268D01*
X338386Y320276D02*
Y333268D01*
X344685D01*
X338386Y320276D02*
X344685D01*
X355512Y353740D02*
Y366732D01*
X349213Y353740D02*
Y366732D01*
X355512D01*
X349213Y353740D02*
X355512D01*
X355512Y320276D02*
Y333268D01*
X349213Y320276D02*
Y333268D01*
X355512D01*
X349213Y320276D02*
X355512D01*
X376772Y281890D02*
Y294882D01*
X383071Y281890D02*
Y294882D01*
X376772Y281890D02*
X383071D01*
X376772Y294882D02*
X383071D01*
X475197Y283858D02*
X481195D01*
Y286857D01*
X480195Y287857D01*
X478196D01*
X477196Y286857D01*
Y283858D01*
X480195Y293855D02*
X481195Y292855D01*
Y290856D01*
X480195Y289856D01*
X479196D01*
X478196Y290856D01*
Y292855D01*
X477196Y293855D01*
X476196D01*
X475197Y292855D01*
Y290856D01*
X476196Y289856D01*
X480195Y295854D02*
X481195Y296854D01*
Y298853D01*
X480195Y299853D01*
X476196D01*
X475197Y298853D01*
Y296854D01*
X476196Y295854D01*
X480195D01*
Y301852D02*
X481195Y302852D01*
Y304852D01*
X480195Y305851D01*
X476196D01*
X475197Y304852D01*
Y302852D01*
X476196Y301852D01*
X480195D01*
X475197Y310849D02*
X481195D01*
X478196Y307851D01*
Y311849D01*
X479196Y319847D02*
X475197Y321846D01*
X479196Y323845D01*
X475197Y329843D02*
Y325845D01*
X479196Y329843D01*
X480195D01*
X481195Y328844D01*
Y326844D01*
X480195Y325845D01*
X475197Y331843D02*
X476196D01*
Y332842D01*
X475197D01*
Y331843D01*
Y336841D02*
Y338841D01*
Y337841D01*
X481195D01*
X480195Y336841D01*
D27*
X332677Y383465D02*
X486221D01*
X332677Y247638D02*
Y383465D01*
Y300787D02*
X469685D01*
X332677Y247638D02*
X486614D01*
D60*
X475394Y263779D02*
Y269685D01*
X481299Y263779D02*
Y269685D01*
X475394Y266732D02*
X481299Y269685D01*
X475394Y266732D02*
X481299Y263779D01*
X475394Y255906D02*
Y261811D01*
X481299Y255906D02*
Y261811D01*
X475394Y258858D02*
X481299Y261811D01*
X475394Y258858D02*
X481299Y255906D01*
D61*
X428543Y351378D02*
D03*
D62*
X450197Y349803D02*
D03*
D63*
X479134Y348031D02*
D03*
D64*
X383071Y328150D02*
D03*
D65*
X382283Y304134D02*
D03*
D66*
X465748Y329724D02*
D03*
D67*
X456890Y304134D02*
D03*
D68*
X428543Y304331D02*
D03*
D69*
X441339Y327559D02*
D03*
D70*
X418307Y328346D02*
D03*
D71*
X414370Y327362D02*
D03*
D72*
X348031Y375787D02*
D03*
D73*
X460039Y253150D02*
D03*
D74*
X453346Y284252D02*
D03*
D75*
X444882Y274803D02*
D03*
D76*
X436221Y283858D02*
D03*
D77*
X363189Y253543D02*
D03*
D78*
X407480Y257480D02*
D03*
D79*
X402165Y292520D02*
D03*
D80*
X422244Y274410D02*
D03*
M02*
