%FSLAX25Y25*%
%MOIN*%
G70*
G01*
G75*
%ADD10R,0.05118X0.03937*%
%ADD11R,0.05118X0.09843*%
%ADD12R,0.05118X0.06299*%
%ADD13R,0.03937X0.05118*%
%ADD14R,0.05512X0.19685*%
%ADD15R,0.05512X0.05512*%
%ADD16R,0.03937X0.03937*%
%ADD17R,0.06299X0.01969*%
%ADD18R,0.15748X0.06299*%
%ADD19R,0.05118X0.03150*%
%ADD20R,0.09055X0.05118*%
%ADD21R,0.07874X0.12598*%
%ADD22R,0.12598X0.07874*%
%ADD23C,0.03937*%
%ADD24C,0.02284*%
%ADD25C,0.01000*%
%ADD26C,0.01969*%
%ADD27C,0.02953*%
%ADD28C,0.02756*%
%ADD29C,0.01890*%
%ADD30C,0.03150*%
%ADD31R,0.01181X0.09449*%
%ADD32R,0.01181X0.09449*%
%ADD33C,0.03937*%
%ADD34R,0.03937X0.03937*%
%ADD35C,0.01772*%
%ADD36C,0.03347*%
D10*
X373228Y352756D02*
D03*
Y360630D02*
D03*
X417323Y309055D02*
D03*
Y301181D02*
D03*
X404331Y261811D02*
D03*
Y253937D02*
D03*
D11*
X407087Y377165D02*
D03*
X419291D02*
D03*
D12*
X367126Y334646D02*
D03*
X379331D02*
D03*
X367126Y316929D02*
D03*
X379331D02*
D03*
X367126Y307087D02*
D03*
X379331D02*
D03*
X448819Y344488D02*
D03*
X436614D02*
D03*
X468504Y331693D02*
D03*
X456299D02*
D03*
X448819D02*
D03*
X436614D02*
D03*
X468504Y319882D02*
D03*
X456299D02*
D03*
X448819D02*
D03*
X436614D02*
D03*
X468504Y307087D02*
D03*
X456299D02*
D03*
X448819D02*
D03*
X436614D02*
D03*
X367126Y344488D02*
D03*
X379331D02*
D03*
X468504D02*
D03*
X456299D02*
D03*
D13*
X367717Y367717D02*
D03*
X375590D02*
D03*
X367717Y379527D02*
D03*
X375591D02*
D03*
X386811Y309055D02*
D03*
X394685D02*
D03*
X386811Y316929D02*
D03*
X394685D02*
D03*
X386811Y334646D02*
D03*
X394685D02*
D03*
X386811Y342520D02*
D03*
X394685D02*
D03*
D14*
X339567Y264764D02*
D03*
X484252Y366929D02*
D03*
D15*
X365157Y264764D02*
D03*
Y255709D02*
D03*
Y273819D02*
D03*
X458661Y366929D02*
D03*
Y375984D02*
D03*
Y357874D02*
D03*
D16*
X397244Y257087D02*
D03*
X387795Y260827D02*
D03*
Y253346D02*
D03*
X414961Y360827D02*
D03*
X424409Y357086D02*
D03*
Y364567D02*
D03*
X338976Y288976D02*
D03*
X348425Y285236D02*
D03*
Y292717D02*
D03*
X346850Y310827D02*
D03*
X356299Y307087D02*
D03*
Y314567D02*
D03*
X346850Y327559D02*
D03*
X356299Y323819D02*
D03*
Y331299D02*
D03*
X346850Y344291D02*
D03*
X356299Y340551D02*
D03*
Y348032D02*
D03*
X346850Y361023D02*
D03*
X356299Y357283D02*
D03*
Y364764D02*
D03*
D17*
X403543Y314882D02*
D03*
Y319882D02*
D03*
Y324882D02*
D03*
Y334882D02*
D03*
Y339882D02*
D03*
Y344882D02*
D03*
X425591Y314882D02*
D03*
Y319882D02*
D03*
Y324882D02*
D03*
Y334882D02*
D03*
Y339882D02*
D03*
Y344882D02*
D03*
X403543Y329882D02*
D03*
X425591D02*
D03*
X462992Y284449D02*
D03*
Y279449D02*
D03*
Y274449D02*
D03*
Y269449D02*
D03*
X440945Y284449D02*
D03*
Y279449D02*
D03*
Y274449D02*
D03*
Y269449D02*
D03*
X412795Y293307D02*
D03*
Y288307D02*
D03*
Y283307D02*
D03*
Y278307D02*
D03*
X390748Y293307D02*
D03*
Y288307D02*
D03*
Y283307D02*
D03*
Y278307D02*
D03*
D18*
X339567Y376968D02*
D03*
D19*
X470472Y295276D02*
D03*
Y291339D02*
D03*
X484252Y295276D02*
D03*
Y291339D02*
D03*
X442913Y295276D02*
D03*
Y291339D02*
D03*
X456693D02*
D03*
Y295276D02*
D03*
D20*
X482283Y263780D02*
D03*
Y254921D02*
D03*
X482283Y308071D02*
D03*
X482283Y316929D02*
D03*
X482283Y334646D02*
D03*
X482283Y343504D02*
D03*
X482283Y325787D02*
D03*
X482283Y281496D02*
D03*
Y272638D02*
D03*
X336614Y306102D02*
D03*
X336614Y322835D02*
D03*
X336614Y339567D02*
D03*
X336614Y356299D02*
D03*
X336614Y313976D02*
D03*
X336614Y330709D02*
D03*
X336614Y347441D02*
D03*
X336614Y364173D02*
D03*
D21*
X444882Y257874D02*
D03*
X466142D02*
D03*
X413386D02*
D03*
X434646D02*
D03*
X379528Y289173D02*
D03*
X358268D02*
D03*
D22*
X376969Y255118D02*
D03*
Y276378D02*
D03*
X439370Y358661D02*
D03*
Y379921D02*
D03*
X425197Y292323D02*
D03*
Y271063D02*
D03*
X390158Y379921D02*
D03*
Y358662D02*
D03*
M02*
