M48
;Layer_Color=9474304
;FILE_FORMAT=2:5
INCH,LZ
;TYPE=PLATED
T1F00S00C0.01772
%
T01
X0482283Y0248031
X0474016Y027874
X0474409Y0284646
X0477165Y0295669
X0474408Y0307086
X0462205Y0307087
X0442519Y0305118
X0436221Y0295669
X0449606
Y0290551
X04553Y0286418
X0455118Y0280709
Y027559
X0452756Y026811
X0447835Y02782
X0434252Y0282283
X0427165
X0422047
X0423228Y0301181
X0411417
X0401968Y0296063
X0399213Y0288976
Y0283858
X0405118Y0288976
X04114Y0271063
X0423228Y0261811
X0458661Y0253937
X0359055Y0255906
X0352755Y0255511
X0356693Y0276378
X0348Y02786
X0341732Y0279921
X0338976Y0294882
X034685Y0305118
X0361417
X0365354Y03
X0369685Y0292913
X0361417Y0317322
X0361417Y0330709
X034685Y0332677
Y0338583
Y0349213
Y0355512
Y0366142
X0362598Y0363386
Y0368898
Y0377953
X0380709Y0379528
Y0361417
X0400394Y0362992
X0409449Y0357874
Y0344882
Y0339764
Y0334646
X0419685
Y0339764
Y0344882
X0416929Y0329921
X0420079Y0324803
Y0319685
Y0314567
X0409055
Y0319685
Y0324803
X044252Y0320079
Y0313386
Y0331496
Y0338189
X0442126Y0346457
X0462205Y0344488
X0429528Y0364961
X0435827Y0372835
X0429921Y0379528
X0361417Y0347638
X034685Y0322047
Y0315748
X0474408Y0320078
Y0331889
Y0344488
X0470079Y0356693
Y0363779
X0483858Y035315
M30
